<?xml version="1.0" standalone="no"?>
<!DOCTYPE svg PUBLIC "-//W3C//DTD SVG 1.1//EN" "http://www.w3.org/Graphics/SVG/1.1/DTD/svg11.dtd" >
<svg xmlns="http://www.w3.org/2000/svg">
<metadata>Generated by IcoMoon</metadata>
<defs>
<font id="icomoon" horiz-adv-x="1024">
<font-face units-per-em="1024" ascent="960" descent="-64" />
<missing-glyph horiz-adv-x="1024" />
<glyph unicode="&#x20;" horiz-adv-x="512" d="" />
<glyph unicode="&#xe900;" glyph-name="check-list" d="M404 56c-5.258 0-10.422-2.141-14.141-5.859s-5.859-8.883-5.859-14.141 2.141-10.422 5.859-14.141c3.719-3.719 8.883-5.859 14.141-5.859s10.422 2.141 14.141 5.859c3.719 3.719 5.859 8.883 5.859 14.141s-2.141 10.422-5.859 14.141c-3.719 3.719-8.883 5.859-14.141 5.859zM1002.648 687.359c-28.422 28.422-74.664 28.422-103.086 0l-91.563-91.563v296.203c0 37.492-30.508 68-68 68h-672c-37.492 0-68-30.508-68-68v-888c0-37.492 30.508-68 68-68h672c37.492 0 68 30.508 68 68v385.617l194.648 194.656c28.422 28.422 28.422 74.664 0 103.086zM768 892v-336.203l-40-40v344.203c0 11.047-8.953 20-20 20h-133.664v40h165.664c15.438 0 28-12.563 28-28zM658.797 343.508l27 60.656 33.656-33.656zM534.336 920v-81.5c0-12.406-10.094-22.5-22.5-22.5h-215.672c-12.406 0-22.5 10.094-22.5 22.5v81.5zM740-24h-672c-15.438 0-28 12.563-28 28v888c0 15.438 12.563 28 28 28h165.664v-40h-133.664c-11.047 0-20-8.953-20-20v-824c0-11.047 8.953-20 20-20h224c11.047 0 20 8.953 20 20s-8.953 20-20 20h-204v784h113.664v-1.5c0-34.461 28.039-62.5 62.5-62.5h215.672c34.461 0 62.5 28.039 62.5 62.5v1.5h113.664v-364.203l-22.781-22.773c-1.727-1.734-3.125-3.773-4.125-6.008l-60.031-134.836c-3.367-7.57-1.727-16.422 4.125-22.281 3.836-3.828 8.953-5.859 14.148-5.859 2.75 0 5.516 0.563 8.133 1.727l60.531 26.953v-256.719h-204c-11.047 0-20-8.953-20-20s8.953-20 20-20h224c11.039 0 20 8.953 20 20v294.531l34.305 15.273c2.109 0.938 4.023 2.242 5.695 3.844v-345.648c0-15.438-12.563-28-28-28zM899.82 538.016l-145.648-145.656-46.523 46.523 180.336 180.336 46.523-46.523zM974.367 612.555l-11.578-11.57-46.516 46.516 11.57 11.57c12.828 12.828 33.695 12.828 46.523 0 12.82-12.82 12.82-33.688 0-46.516zM324 720h-128c-11.047 0-20-8.953-20-20v-128c0-11.047 8.953-20 20-20h128c11.047 0 20 8.953 20 20v128c0 11.047-8.953 20-20 20zM304 592h-88v88h88zM324 500h-128c-11.047 0-20-8.953-20-20v-128c0-11.047 8.953-20 20-20h128c11.047 0 20 8.953 20 20v128c0 11.047-8.953 20-20 20zM304 372h-88v88h88zM324 280h-128c-11.047 0-20-8.953-20-20v-128c0-11.047 8.953-20 20-20h128c11.047 0 20 8.953 20 20v128c0 11.047-8.953 20-20 20zM304 152h-88v88h88zM467.156 576.711c3.906-3.906 9.023-5.859 14.141-5.859s10.234 1.953 14.141 5.859l90.297 90.297c7.805 7.805 7.805 20.469 0 28.281-7.813 7.813-20.477 7.813-28.289 0l-76.148-76.148-30.352 30.352c-7.813 7.813-20.469 7.813-28.289 0-7.805-7.813-7.805-20.477 0-28.281zM467.156 356.711c3.75-3.75 8.836-5.859 14.141-5.859s10.391 2.109 14.141 5.859l90.297 90.289c7.805 7.813 7.805 20.477 0 28.289-7.813 7.805-20.477 7.805-28.289 0l-76.148-76.156-30.352 30.352c-7.813 7.813-20.469 7.813-28.289 0-7.805-7.805-7.805-20.469 0-28.281zM504.195 167.711l31.008-31c3.906-3.906 9.023-5.859 14.141-5.859s10.234 1.953 14.141 5.859c7.813 7.813 7.813 20.477 0 28.281l-31 31.008 31 31.008c7.813 7.805 7.813 20.469 0 28.281s-20.469 7.813-28.281 0l-31.008-31-31 31c-7.813 7.805-20.469 7.813-28.289 0-7.805-7.813-7.805-20.477 0-28.281l31.008-31.008-31.008-31.008c-7.805-7.805-7.805-20.469 0-28.281 3.906-3.906 9.031-5.859 14.148-5.859s10.234 1.953 14.141 5.859z" />
<glyph unicode="&#xe901;" glyph-name="search-interface-symbol" d="M1014.294-8.29l-264.38 260.155c69.233 75.219 111.771 174.698 111.771 284.164-0.033 234.168-192.91 423.971-430.854 423.971s-430.821-189.803-430.821-423.971 192.877-423.971 430.821-423.971c102.808 0 197.102 35.56 271.168 94.678l265.406-261.181c12.932-12.74 33.927-12.74 46.859 0 12.962 12.738 12.962 33.415 0.030 46.155zM430.831 177.289c-201.326 0-364.533 160.613-364.533 358.74s163.207 358.74 364.533 358.74c201.328 0 364.533-160.613 364.533-358.74s-163.205-358.74-364.533-358.74z" />
<glyph unicode="&#xe902;" glyph-name="briefing" d="M664.883 705.461c-9.328 9.32-21.727 14.461-34.914 14.461s-25.586-5.141-34.906-14.461c-9.328-9.328-14.469-21.727-14.469-34.914s5.141-25.586 14.461-34.906l84.109-84.109c9.32-9.32 21.727-14.461 34.914-14.461s25.578 5.141 34.906 14.461l179.703 179.703c9.328 9.328 14.461 21.727 14.461 34.906 0 13.188-5.133 25.586-14.461 34.914-9.32 9.328-21.727 14.461-34.914 14.461s-25.586-5.133-34.906-14.461l-19.813-19.813c-14.68 11.203-30.789 20.188-47.859 26.688v22.461c0 27.227-22.148 49.375-49.367 49.375h-154.813v17.141c0 34.789-28.305 63.094-63.094 63.094h-172.648c-34.789 0-63.094-28.305-63.094-63.094v-71.289c0-19.328 15.727-35.055 35.055-35.055h228.727c19.328 0 35.055 15.727 35.055 35.055v24.102h154.805c10.656 0 19.328-8.672 19.328-19.328v-13.836c-12.367 2.5-25.023 3.828-37.828 3.828-105.227 0-190.836-85.609-190.836-190.836s85.609-190.836 190.836-190.836c12.836 0 25.492 1.289 37.828 3.766v-457.109c0-10.656-8.672-19.32-19.328-19.32h-608.453c-10.656 0-19.32 8.664-19.32 19.32v845.023c0 10.656 8.664 19.328 19.32 19.328h99.867c8.297 0 15.023 6.727 15.023 15.023s-6.727 15.023-15.023 15.023h-99.867c-27.219 0-49.367-22.148-49.367-49.375v-845.023c0-27.219 22.148-49.367 49.367-49.367h608.461c27.219 0 49.367 22.148 49.367 49.367v465.797c23.922 9.102 45.984 22.992 64.859 41.266 35.688 34.555 56.289 80.883 57.992 130.453 0.281 8.289-6.203 15.242-14.5 15.531-8.234 0.273-15.242-6.203-15.531-14.5-2.398-69.773-48.281-127.383-111.289-147.484-0.867-0.203-1.711-0.469-2.508-0.82-14.828-4.461-30.57-6.852-46.898-6.852-88.656 0-160.789 72.133-160.789 160.789s72.133 160.789 160.789 160.789c34.055 0 66.969-10.766 94.273-30.555l-103.516-103.523zM556.969 825.617c0-2.766-2.242-5.008-5.008-5.008h-228.727c-2.766 0-5.008 2.242-5.008 5.008v71.289c0 18.227 14.82 33.047 33.047 33.047h172.648c18.219 0 33.047-14.82 33.047-33.047zM880.117 779.805c3.648 3.656 8.5 5.664 13.656 5.664 5.164 0 10.016-2.016 13.672-5.664 7.531-7.531 7.531-19.797 0-27.328l-179.711-179.703c-3.648-3.648-8.5-5.664-13.664-5.664s-10.016 2.016-13.664 5.664l-84.109 84.109c-3.648 3.648-5.656 8.5-5.656 13.664s2.008 10.016 5.664 13.664c3.648 3.648 8.5 5.664 13.664 5.664 5.156 0 10.016-2.016 13.664-5.664l59.82-59.82c5.867-5.867 15.375-5.867 21.242 0zM492.875 582.906h-183.055c-8.297 0-15.016-6.727-15.016-15.023 0-8.289 6.719-15.016 15.016-15.016h183.055c8.297 0 15.023 6.727 15.023 15.016 0 8.297-6.727 15.023-15.023 15.023zM281.148 737.977h-101.086c-8.297 0-15.023-6.727-15.023-15.023s6.727-15.023 15.023-15.023h101.086c8.297 0 15.023 6.727 15.023 15.023s-6.727 15.023-15.023 15.023zM309.82 483.172h183.055c8.297 0 15.023 6.727 15.023 15.023 0 8.289-6.727 15.016-15.023 15.016h-183.055c-8.297 0-15.016-6.727-15.016-15.016 0-8.297 6.719-15.023 15.016-15.023zM556.109 400.703h-246.289c-8.297 0-15.016-6.727-15.016-15.023s6.719-15.023 15.016-15.023h246.289c8.297 0 15.023 6.727 15.023 15.023s-6.727 15.023-15.023 15.023zM309.82 300.961h123.148c8.297 0 15.016 6.727 15.016 15.023s-6.719 15.023-15.016 15.023h-123.148c-8.297 0-15.016-6.727-15.016-15.023s6.719-15.023 15.016-15.023zM309.82 188.258h183.055c8.297 0 15.023 6.727 15.023 15.023s-6.727 15.023-15.023 15.023h-183.055c-8.297 0-15.016-6.727-15.016-15.023s6.719-15.023 15.016-15.023zM309.82 118.57h246.289c8.297 0 15.023 6.727 15.023 15.023 0 8.289-6.727 15.016-15.023 15.016h-246.289c-8.297 0-15.016-6.727-15.016-15.016 0-8.297 6.719-15.023 15.016-15.023zM211.945 595.93c-33.461 0-60.68-27.219-60.68-60.68s27.219-60.68 60.68-60.68c33.461 0 60.68 27.219 60.68 60.68s-27.219 60.68-60.68 60.68zM211.945 504.617c-16.891 0-30.633 13.742-30.633 30.633s13.742 30.633 30.633 30.633c16.891 0 30.633-13.742 30.633-30.633s-13.742-30.633-30.633-30.633zM211.945 411.516c-33.461 0-60.68-27.227-60.68-60.68 0-33.461 27.219-60.68 60.68-60.68s60.68 27.219 60.68 60.68c0 33.453-27.219 60.68-60.68 60.68zM211.945 320.195c-16.891 0-30.633 13.742-30.633 30.633 0 16.898 13.742 30.641 30.633 30.641s30.633-13.742 30.633-30.641c0-16.891-13.742-30.633-30.633-30.633zM211.945 229.117c-33.461 0-60.68-27.219-60.68-60.68s27.219-60.68 60.68-60.68c33.461 0 60.68 27.219 60.68 60.68s-27.219 60.68-60.68 60.68zM211.945 137.805c-16.891 0-30.633 13.742-30.633 30.633s13.742 30.633 30.633 30.633c16.891 0 30.633-13.742 30.633-30.633s-13.742-30.633-30.633-30.633z" />
<glyph unicode="&#xe903;" glyph-name="shopping-cart" d="M827.473 233.886c42.577 0.446 79.805 29.202 90.728 70.442l104.995 390.999c3.344 12.706-4.013 25.636-16.719 29.202-2.006 0.446-4.013 0.892-6.019 0.892h-789.8l-53.723 198.397c-2.675 10.254-12.038 17.611-22.738 17.611h-134.197v-47.482h115.472l51.94-193.939c-0.223-1.56-0.223-3.121 0-4.681l107.001-392.336c0.669-3.121 1.783-6.465 2.898-9.585l36.113-131.522c-34.775-18.502-58.405-55.061-58.405-97.192 0-60.857 49.265-110.122 110.122-110.122s110.122 49.265 110.122 110.122c0 18.948-4.904 37.004-13.375 52.609-2.006 3.567-4.013 7.133-6.465 10.7h280.208c-12.483-17.833-20.063-39.679-20.063-63.309 0-60.857 49.265-110.122 110.122-110.122s110.122 49.265 110.122 110.122c0 28.756-10.923 54.838-28.979 74.455-19.394 22.069-47.927 36.113-79.805 36.336h-466.122l-16.719 61.303c7.133-1.783 14.49-2.898 21.846-2.898h461.441zM825.913 128c34.998 0 63.309-28.311 63.309-63.309s-28.311-63.309-63.309-63.309c-34.998 0-63.309 28.311-63.309 63.309s28.311 63.309 63.309 63.309zM365.14 128c34.998 0 63.086-28.534 63.086-63.309 0-34.998-28.311-63.309-63.309-63.309s-63.086 28.311-63.086 63.309 28.311 63.309 63.309 63.309zM322.786 311.461l-53.277 194.831-47.482 171.201h746.554l-96.524-362.465c-5.35-20.731-23.852-35.221-45.252-35.667h-461.218c-19.394 1.115-36.336 13.598-42.8 32.1z" />
<glyph unicode="&#xe904;" glyph-name="play-button" d="M73.143 960l877.714-512-877.714-512z" />
<glyph unicode="&#xe905;" glyph-name="play-button-1" d="M121.285-64c-42.845 0-62.020 36.717-62.020 73.102v877.796c-0.003 36.385 19.172 73.102 62.014 73.102 13.87 0 28.251-4.246 42.754-12.621l760.199-438.885c25.743-14.868 40.503-36.913 40.503-60.491s-14.76-45.623-40.5-60.488l-760.206-438.901c-14.499-8.368-28.881-12.614-42.744-12.614zM121.279 914.344c-14.235 0-16.361-17.193-16.361-27.446v-877.796c0-10.25 2.126-27.446 16.364-27.446 3.949 0 10.615 1.128 19.919 6.499l760.203 438.898c11.068 6.389 17.675 14.222 17.675 20.95s-6.607 14.561-17.679 20.953l-760.199 438.885c-9.304 5.374-15.97 6.503-19.922 6.503z" />
<glyph unicode="&#xe906;" glyph-name="pin" d="M512 960c-208.583 0-378.27-169.688-378.27-378.27 0-68.667 30.796-142.519 32.086-145.634 9.946-23.609 29.572-60.278 43.724-81.773l259.36-392.978c10.614-16.11 26.323-25.344 43.101-25.344s32.487 9.234 43.101 25.322l259.382 393.001c14.174 21.495 33.777 58.165 43.724 81.773 1.291 3.093 32.064 76.945 32.064 145.634 0 208.583-169.688 378.27-378.27 378.27zM817.175 453.363c-8.878-21.161-27.146-55.272-39.852-74.542l-259.382-393.001c-5.118-7.766-6.742-7.766-11.86 0l-259.382 393.001c-12.705 19.27-30.974 53.403-39.852 74.564-0.378 0.912-28.615 68.89-28.615 128.345 0 184.040 149.728 333.768 333.768 333.768s333.768-149.728 333.768-333.768c0-59.544-28.304-127.7-28.593-128.367zM512 781.968c-110.433 0-200.261-89.85-200.261-200.261s89.828-200.261 200.261-200.261c110.433 0 200.261 89.85 200.261 200.261s-89.828 200.261-200.261 200.261zM512 425.949c-85.867 0-155.758 69.869-155.758 155.758s69.891 155.758 155.758 155.758 155.758-69.869 155.758-155.758-69.891-155.758-155.758-155.758z" />
<glyph unicode="&#xe907;" glyph-name="envelope" d="M938.666 832h-853.332c-47.064 0-85.334-38.27-85.334-85.334v-597.334c0-47.062 38.27-85.332 85.334-85.332h853.334c47.062 0 85.332 38.27 85.332 85.334v597.332c0 47.064-38.27 85.334-85.334 85.334zM85.334 789.334h853.334c3.144 0 5.914-1.146 8.864-1.794-73.878-67.614-318.846-291.718-404.572-368.956-6.708-6.042-17.52-13.25-30.958-13.25s-24.25 7.208-30.98 13.27c-85.718 77.226-330.7 301.342-404.566 368.932 2.956 0.648 5.732 1.798 8.878 1.798zM42.666 149.334v597.332c0 4.18 1.26 7.972 2.388 11.792 56.544-51.752 227.472-208.12 338.304-308.906-110.472-94.894-281.444-256.99-338.438-311.338-1.006 3.628-2.254 7.176-2.254 11.12zM938.666 106.666h-853.332c-3.408 0-6.438 1.188-9.62 1.948 58.894 56.144 230.954 219.172 339.484 312.018 14.148-12.834 27.072-24.536 37.26-33.716 17.584-15.876 38.166-24.25 59.542-24.25s41.958 8.376 59.52 24.23c10.192 9.184 23.126 20.896 37.282 33.736 108.536-92.836 280.572-255.852 339.484-312.018-3.182-0.76-6.208-1.948-9.62-1.948zM981.334 149.334c0-3.942-1.248-7.492-2.252-11.12-57.016 54.376-227.968 216.454-338.438 311.336 110.836 100.786 281.738 257.14 338.302 308.912 1.128-3.82 2.388-7.614 2.388-11.794v-597.334z" />
<glyph unicode="&#xe908;" glyph-name="facebook" d="M874 960h-724c-82.703 0-150-67.297-150-150v-724c0-82.703 67.297-150 150-150h302v362h-120v180h120v122c0 99.258 80.742 180 180 180h182v-180h-182v-122h182l-30-180h-152v-362h242c82.703 0 150 67.297 150 150v724c0 82.703-67.297 150-150 150z" />
<glyph unicode="&#xe909;" glyph-name="instagram" d="M746.811 960h-469.624c-152.843 0-277.187-124.344-277.187-277.187v-469.632c0-152.836 124.344-277.179 277.187-277.179h469.632c152.836 0 277.179 124.344 277.179 277.179v469.632c0 152.843-124.344 277.187-277.187 277.187zM963.967 213.181c0-119.734-97.414-217.148-217.156-217.148h-469.624c-119.742 0-217.156 97.414-217.156 217.148v469.632c0 119.742 97.414 217.156 217.156 217.156h469.632c119.734 0 217.148-97.414 217.148-217.156zM511.999 727.993c-154.39 0-279.992-125.601-279.992-279.992s125.601-279.992 279.992-279.992 279.992 125.601 279.992 279.992-125.601 279.992-279.992 279.992zM511.999 228.040c-121.281 0-219.961 98.672-219.961 219.961 0 121.281 98.68 219.961 219.961 219.961 121.289 0 219.961-98.68 219.961-219.961 0-121.289-98.672-219.961-219.961-219.961zM798.686 827.43c-45.625 0-82.734-37.117-82.734-82.734 0-45.625 37.109-82.742 82.734-82.742s82.742 37.117 82.742 82.742-37.117 82.734-82.742 82.734zM798.686 721.993c-12.516 0-22.703 10.187-22.703 22.703 0 12.523 10.187 22.703 22.703 22.703 12.523 0 22.711-10.18 22.711-22.703 0-12.516-10.187-22.703-22.711-22.703z" />
<glyph unicode="&#xe90a;" glyph-name="tik-tok" d="M960.64 703.22c-58.44 0-112.36 19.36-155.66 52.020-49.66 37.44-85.34 92.36-97.94 155.66-3.12 15.64-4.8 31.78-4.96 48.32h-166.94v-456.16l-0.2-249.86c0-66.8-43.5-123.44-103.8-143.36-17.5-5.78-36.4-8.52-56.080-7.44-25.12 1.38-48.66 8.96-69.12 21.2-43.54 26.040-73.060 73.28-73.86 127.32-1.26 84.46 67.020 153.32 151.42 153.32 16.66 0 32.66-2.72 47.64-7.66v169.5c-15.8 2.34-31.88 3.56-48.14 3.56-92.38 0-178.78-38.4-240.54-107.58-46.68-52.28-74.68-118.98-79-188.92-5.66-91.88 27.96-179.22 93.16-243.66 9.58-9.46 19.64-18.24 30.16-26.34 55.9-43.020 124.24-66.34 196.22-66.34 16.26 0 32.34 1.2 48.14 3.54 67.24 9.96 129.28 40.74 178.24 89.14 60.16 59.46 93.4 138.4 93.76 222.42l-0.86 373.12c28.7-22.14 60.080-40.46 93.76-54.68 52.38-22.1 107.92-33.3 165.080-33.28v166.2c0.040-0.040-0.44-0.040-0.48-0.040z" />
<glyph unicode="&#xe90b;" glyph-name="youtube" d="M820.37 824.163h-616.741c-112.285 0-203.63-91.638-203.63-204.257v-343.792c0-112.64 91.345-204.257 203.63-204.257h616.741c112.285 0 203.63 91.638 203.63 204.257v343.792c0 112.619-91.345 204.257-203.63 204.257zM982.204 276.093c0-89.59-72.6-162.461-161.834-162.461h-616.741c-89.234 0-161.834 72.892-161.834 162.461v343.813c0 89.569 72.6 162.461 161.834 162.461h616.741c89.234 0 161.834-72.892 161.834-162.461v-343.813zM697.156 455.565l-289.541 169.587c-6.437 3.762-14.44 3.824-20.94 0.104s-10.512-10.637-10.512-18.139v-339.153c0-7.481 4.012-14.42 10.491-18.139 3.218-1.839 6.813-2.759 10.407-2.759 3.657 0 7.293 0.961 10.553 2.863l289.541 169.545c6.395 3.741 10.344 10.616 10.344 18.035s-3.929 14.315-10.344 18.056zM417.959 304.431v266.24l227.286-133.141-227.286-133.099z" />
<glyph unicode="&#xe90c;" glyph-name="youtube-1" d="M867.834 826.822h-711.668c-76.182 0-138.16-61.978-138.16-138.16v-481.266c0-76.212 61.978-138.216 138.16-138.216h711.666c76.182 0 138.16 62.004 138.16 138.216v481.266c0.002 76.182-61.976 138.16-138.158 138.16zM977.988 207.396c0-60.77-49.416-110.21-110.154-110.21h-711.668c-60.74 0-110.154 49.44-110.154 110.21v481.266c0 60.74 49.416 110.154 110.154 110.154h711.666c60.738 0 110.154-49.416 110.154-110.154v-481.266zM661.228 485.168l-260.16 119.080c-13.626 6.164-28.834 5.498-41.664-1.8-13.508-7.598-21.254-20.518-21.254-35.45v-237.998c0-14.93 7.748-27.85 21.196-35.416 7.034-4 14.746-6.014 22.51-6.014 6.51 0 13.056 1.416 19.266 4.262l260.148 119.016c15.424 7.12 24.632 21.006 24.632 37.148 0.004 15.99-9.458 30.234-24.674 37.172zM649.554 436.288l-260.090-118.992c-5.492-2.514-11.118-2.298-16.328 0.666-4.63 2.604-6.98 6.32-6.98 11.040v237.996c0 4.72 2.348 8.434 7.038 11.072 2.796 1.59 5.738 2.386 8.716 2.386 2.512 0 5.052-0.566 7.554-1.698l260.13-119.066c3.102-1.414 8.304-4.814 8.304-11.694 0.002-6.824-5.22-10.264-8.344-11.71z" />
<glyph unicode="&#xe90d;" glyph-name="plus" d="M984 488h-432v432c0 22.092-17.908 40-40 40s-40-17.908-40-40v-432h-432c-22.092 0-40-17.908-40-40s17.908-40 40-40h432v-432c0-22.092 17.908-40 40-40s40 17.908 40 40v432h432c22.092 0 40 17.908 40 40s-17.908 40-40 40z" />
<glyph unicode="&#xe90e;" glyph-name="plus-1" d="M1024 479.67h-480.33v480.33h-63.34v-480.33h-480.33v-63.34h480.33v-480.33h63.34v480.33h480.33z" />
<glyph unicode="&#xe90f;" glyph-name="plus-2" d="M993.984 417.974h-963.968c-16.577 0-30.016 13.439-30.016 30.016s13.439 30.016 30.016 30.016v0h963.968c16.577 0 30.016-13.439 30.016-30.016s-13.439-30.016-30.016-30.016v0zM512.010-64c-16.577 0-30.016 13.439-30.016 30.016v0 963.968c0 16.577 13.439 30.016 30.016 30.016s30.016-13.439 30.016-30.016v0-963.968c0-16.577-13.439-30.016-30.016-30.016v0z" />
<glyph unicode="&#xe910;" glyph-name="minus" d="M0 479.67h1024v-63.34h-1024v63.34z" />
<glyph unicode="&#xe911;" glyph-name="minus-1" d="M985.603 408.803h-947.203c-21.197 0-38.4 17.203-38.4 38.4s17.203 38.4 38.4 38.4h947.203c21.197 0 38.4-17.203 38.4-38.4s-17.203-38.4-38.4-38.4z" />
<glyph unicode="&#xe912;" glyph-name="solution" d="M810.032 627.952l-101.76 101.76c-2.9 2.923-6.919 4.733-11.36 4.733-8.040 0-14.694-5.93-15.829-13.654l-0.010-0.087c-4.593-31.234-31.206-54.939-63.355-54.939-35.346 0-64 28.654-64 64 0 32.15 23.706 58.763 54.591 63.313l0.348 0.042c7.811 1.145 13.741 7.8 13.741 15.84 0 4.441-1.81 8.46-4.732 11.359l-101.761 101.761c-2.895 2.894-6.895 4.685-11.312 4.685s-8.417-1.79-11.312-4.685l-88.368-88.336c-11.312 41.34-48.54 71.22-92.747 71.22-53.019 0-96-42.981-96-96 0-44.198 29.868-81.42 70.521-92.582l0.674-0.158-88.272-88.272c-2.894-2.895-4.685-6.895-4.685-11.312s1.79-8.417 4.685-11.312l88.304-88.416c-41.276-11.355-71.094-48.552-71.094-92.713 0-39.841 24.269-74.013 58.83-88.539l0.632-0.236-37.36-107.76c-4.346-9.547-6.879-20.706-6.879-32.456 0-13.945 3.568-27.056 9.84-38.471l-0.209 0.415 56.16-132.8c0.241-0.59 0.483-1.080 0.753-1.55l-0.033 0.062c3.757-6.756 5.968-14.819 5.968-23.397 0-0.037 0-0.075 0-0.112v0.006-15.36c0-8.837 7.163-16 16-16s16 7.163 16 16v0 15.36c-0.018 13.97-3.571 27.107-9.812 38.569l0.212-0.425-56.176 132.8c-0.26 0.638-0.518 1.164-0.805 1.671l0.037-0.071c-3.761 6.737-5.975 14.78-5.975 23.341 0 7.465 1.684 14.537 4.693 20.857l-0.126-0.294 39.136 112.64c1.68 0 3.328-0.24 5.024-0.24 0.025 0 0.054 0 0.084 0 44.12 0 81.275 29.817 92.415 70.4l0.157 0.673 27.136-27.024v-164.256c0-8.837 7.163-16 16-16s16 7.163 16 16v0 224c0 26.51 21.49 48 48 48s48-21.49 48-48v0-193.776c0.031-23.475 5.643-45.632 15.58-65.225l-0.38 0.825 5.856-11.744c7.423-14.597 11.771-31.831 11.771-50.080s-4.349-35.483-12.066-50.722l0.295 0.642-16-32c-3.185-6.258-5.052-13.646-5.056-21.471v-24.449c0-8.837 7.163-16 16-16s16 7.163 16 16v0 24.448c0 0.032 0 0.070 0 0.108 0 2.561 0.591 4.984 1.643 7.141l-0.043-0.097 16 32c9.542 18.769 15.131 40.928 15.131 64.392s-5.59 45.623-15.51 65.217l0.379-0.825-5.856 11.744c-5.434 10.665-9.311 23.069-10.937 36.172l-0.055 0.548c20.221-20.292 48.195-32.848 79.101-32.848 0.052 0 0.104 0 0.155 0h-0.008c26.51 0 48 21.49 48 48v0 91.2c42.168 10.692 72.869 48.309 72.869 93.096 0 44.154-29.839 81.339-70.452 92.49l-0.673 0.158 88.288 88.416c2.885 2.894 4.669 6.887 4.669 11.296s-1.784 8.402-4.669 11.296v0zM672 224c-44.161 0.055-79.945 35.839-80 79.995v83.205l12.224 12.224c10.476-38.441 43.342-66.901 83.392-70.691l0.384-0.029v-88.704c0-8.837-7.163-16-16-16v0zM674.288 514.672c-2.934-2.902-4.751-6.928-4.751-11.379 0-8.837 7.163-16 16-16 0.841 0 1.667 0.065 2.473 0.19l-0.090-0.011c2.695 0.402 5.805 0.632 8.968 0.632 35.346 0 64-28.654 64-64s-28.654-64-64-64c-35.346 0-64 28.654-64 64 0 3.164 0.23 6.274 0.673 9.315l-0.041-0.346c0.114 0.716 0.179 1.542 0.179 2.383 0 8.837-7.163 16-16 16-4.451 0-8.477-1.817-11.377-4.75l-0.001-0.001-14.32-14.352c-0.1 44.107-35.879 79.824-80 79.824-44.183 0-80-35.817-80-80 0-0.062 0-0.124 0-0.186v0.010-14.496l-29.328 29.328c-2.902 2.934-6.928 4.751-11.379 4.751-8.837 0-16-7.163-16-16 0-0.841 0.065-1.667 0.19-2.473l-0.011 0.090c0.402-2.695 0.632-5.805 0.632-8.968 0-35.346-28.654-64-64-64s-64 28.654-64 64c0 35.346 28.654 64 64 64 3.164 0 6.274-0.23 9.315-0.673l-0.346 0.041c0.722-0.115 1.555-0.181 2.402-0.181 8.837 0 16 7.163 16 16 0 4.452-1.818 8.479-4.753 11.38l-0.002 0.002-101.712 101.84 101.824 101.76c2.934 2.902 4.751 6.928 4.751 11.379 0 8.837-7.163 16-16 16-0.841 0-1.667-0.065-2.473-0.19l0.090 0.011c-2.662-0.392-5.734-0.616-8.859-0.616-35.346 0-64 28.654-64 64 0 17.626 7.125 33.588 18.653 45.162l-0.002-0.002c11.747 11.207 27.692 18.103 45.248 18.103s33.501-6.896 45.274-18.127l-0.026 0.025c11.546-11.576 18.686-27.552 18.686-45.195 0-3.179-0.232-6.305-0.68-9.36l0.042 0.347c-0.114-0.716-0.179-1.542-0.179-2.383 0-8.837 7.163-16 16-16 4.451 0 8.477 1.817 11.377 4.75l0.001 0.001 101.904 101.792 71.696-71.712c-32.572-15.818-54.627-48.647-54.627-86.627 0-53.019 42.981-96 96-96 37.98 0 70.809 22.056 86.377 54.058l0.25 0.57 71.712-71.696zM976 592h-96c-8.837 0-16 7.163-16 16s7.163 16 16 16v0h96c8.837 0 16-7.163 16-16s-7.163-16-16-16v0zM862.704 776c-8.836 0-15.999 7.164-15.999 16 0 5.891 3.183 11.038 7.924 13.815l0.075 0.041 83.2 48c2.273 1.315 5 2.091 7.908 2.091 8.837 0 16-7.163 16-16 0-5.854-3.143-10.973-7.834-13.762l-0.074-0.041-83.2-48c-2.284-1.348-5.032-2.144-7.966-2.144-0.012 0-0.024 0-0.035 0h0.002zM945.824 360c-0.010 0-0.022 0-0.034 0-2.934 0-5.683 0.796-8.041 2.184l0.074-0.040-83.2 48c-4.868 2.806-8.092 7.981-8.092 13.909 0 8.837 7.163 16 16 16 2.983 0 5.775-0.816 8.166-2.238l-0.074 0.041 83.2-48c4.816-2.818 7.999-7.965 7.999-13.856 0-8.836-7.163-16-15.999-16v0zM144 592h-96c-8.837 0-16 7.163-16 16s7.163 16 16 16v0h96c8.837 0 16-7.163 16-16s-7.163-16-16-16v0zM161.296 776c-0.010 0-0.022 0-0.034 0-2.934 0-5.683 0.796-8.041 2.184l0.074-0.040-83.2 48c-4.765 2.83-7.908 7.949-7.908 13.803 0 8.837 7.163 16 16 16 2.908 0 5.635-0.776 7.985-2.132l-0.077 0.041 83.2-48c4.816-2.818 7.999-7.965 7.999-13.856 0-8.836-7.163-16-15.999-16v0zM78.176 360c-8.836 0-15.999 7.164-15.999 16 0 5.891 3.183 11.038 7.924 13.815l0.075 0.041 83.2 48c2.317 1.381 5.109 2.197 8.092 2.197 8.837 0 16-7.163 16-16 0-5.928-3.224-11.104-8.015-13.868l-0.077-0.041-83.2-48c-2.284-1.348-5.032-2.144-7.966-2.144-0.012 0-0.024 0-0.035 0h0.002z" />
<glyph unicode="&#xe913;" glyph-name="blueprint" d="M1023.995 858.317c0.062 13.907-5.472 27.254-15.361 37.034l-49.286 49.288c-9.735 9.841-23.005 15.372-36.847 15.361h-0.17c-13.758-0.008-26.935-5.543-36.574-15.361l-223.571-223.571h-440.316v187.731c0 28.278-22.924 51.2-51.2 51.2h-34.133c-75.369-0.084-136.448-61.163-136.532-136.532v-755.212c4.271-74.795 66.569-133.026 141.482-132.248h831.311c28.277 0 51.199 22.922 51.199 51.199v682.661c0 28.277-22.922 51.2-51.199 51.2h-64.853l100.692 100.692c9.797 9.644 15.329 22.808 15.359 36.556zM610.645 533.336c-3.612-0.492-7.243 0.778-9.762 3.413-2.541 2.524-3.796 6.065-3.413 9.625l6.468 58.026c0.271 1.213 0.613 2.411 1.024 3.584l67.225-67.225c-1.109-0.239-2.116-0.785-3.277-0.922zM700.055 561.207l-74.684 74.7 186.026 186.024 74.648-74.631zM835.462 846.082l25.31 25.293 74.615-74.631-25.293-25.31zM34.136 823.468c0.057 56.53 45.87 102.344 102.399 102.399h34.133c9.425 0 17.067-7.641 17.067-17.066v-682.661c0-9.425-7.641-17.066-17.067-17.066h-34.133c-39.208 0.012-76.52-16.865-102.399-46.318zM972.796 686.936c9.425 0 17.067-7.641 17.067-17.067v-682.661c0-9.425-7.641-17.067-17.067-17.067h-831.311c-56.341-0.947-103.54 42.426-107.349 98.645v3.755c0.057 56.53 45.87 102.342 102.399 102.399h34.133c28.277 0 51.199 22.922 51.199 51.199v460.797h406.183l-38.758-38.758c-10.82-10.662-17.627-24.732-19.268-39.833l-6.468-58.145c-0.532-5.671 0.007-11.389 1.587-16.862h-292.076c-9.425 0-17.067-7.641-17.067-17.067 0-9.425 7.641-17.066 17.067-17.066h51.2v-460.797c0-9.425 7.641-17.067 17.067-17.067s17.067 7.641 17.067 17.067v238.931h187.731v-136.532h-119.467c-9.425 0-17.066-7.641-17.066-17.066s7.641-17.067 17.066-17.067h341.331c18.852 0 34.133 15.281 34.133 34.133v255.997c0 9.425-7.641 17.067-17.066 17.067s-17.067-7.641-17.067-17.067v-85.332h-409.597v187.731h251.015c1.665-0.003 3.329 0.088 4.984 0.273l58.315 6.638c14.801 1.68 28.617 8.257 39.253 18.688l161.928 162.132h98.9zM767.998 277.339v-136.532h-187.733v136.532zM984.572 845.962l-25.053-25.070-74.615 74.615 25.070 25.070c3.28 3.366 7.776 5.274 12.476 5.29 4.785-0.012 9.364-1.943 12.714-5.359l49.357-49.254c3.432-3.38 5.358-8 5.343-12.817-0.015-4.701-1.922-9.198-5.292-12.475z" />
<glyph unicode="&#xe914;" glyph-name="office-building" d="M925.484 196.51c-7.994-0.094-7.116 0.294-17.744-0.45v248.642c0 26.61-21.65 48.26-48.26 48.26h-121.84c-0.066 0-0.128 0.010-0.194 0.010h-140.304v374.57l115.070-111.23c6.504-6.288 10.234-15.080 10.234-24.126v-183.508c0-8.284 6.716-15 15-15s15 6.716 15 15v183.508c0 17.132-7.064 33.788-19.384 45.696l-140.496 135.806c-3.158 2.964-9.21 5.624-15.204 3.434l-252.042-84.72v58.4c0.19 25.518-22.706 47.728-49.34 46.18-25.474 0-46.2-20.716-46.2-46.18v-90.514l-65.942-22.166c-25.902-8.708-43.306-32.916-43.306-60.244v-521.45c-66.75-1.71-120.532-56.502-120.532-123.656v-76.276c0-20.708 16.846-37.552 37.552-37.552h948.894c20.708 0 37.552 16.846 37.552 37.552v101.5c0.002 54.32-44.192 98.514-98.514 98.514zM925.484 166.51c37.78 0 68.516-30.736 68.516-68.516v-15.736h-145.5v15.736c0.034 41.002 36.060 72.068 76.984 68.516zM877.74 444.702v-256.382c-34.828-15.204-59.24-49.958-59.24-90.324v-15.736h-221.358v380.702h262.338c10.068 0 18.26-8.192 18.26-18.26zM259.78 890.802c0 8.922 7.268 16.18 16.2 16.18 8.022 1.178 18.824-5.112 19.34-16.18v-68.484l-35.54-11.946zM120.534 166.456v-84.198h-90.058c4.666 46.204 43.024 82.61 90.058 84.198zM30-3.506v55.764h90.534v-63.316h-82.98c-4.166 0-7.554 3.388-7.554 7.552zM150.534 717.878c0 14.428 9.188 27.208 22.864 31.806l393.746 132.352v-81.73l-327.144-109.966c-7.852-2.638-12.078-11.144-9.438-18.998 2.106-6.268 7.95-10.224 14.216-10.224 1.584 0 3.196 0.252 4.782 0.786l317.584 106.75v-76.31l-327.144-109.964c-7.852-2.64-12.078-11.146-9.438-18.998 2.106-6.268 7.95-10.224 14.216-10.224 1.584 0 3.196 0.252 4.782 0.786l317.584 106.752v-76.31l-327.144-109.966c-7.852-2.638-12.078-11.144-9.438-18.998 2.106-6.268 7.95-10.224 14.216-10.224 1.584 0 3.196 0.252 4.782 0.786l317.584 106.75v-74.716c0-0.020-0.002-0.038-0.002-0.058v-1.538l-327.142-109.962c-7.852-2.64-12.078-11.146-9.438-18.998 2.106-6.268 7.95-10.224 14.216-10.224 1.584 0 3.196 0.252 4.782 0.786l317.58 106.752v-76.312l-204.274-68.664c-7.852-2.638-12.078-11.144-9.438-18.998 2.106-6.268 7.95-10.224 14.216-10.224 1.584 0 3.196 0.252 4.782 0.786l194.714 65.452v-347.872h-129.584v155.866c0 10.216-4.668 19.62-12.806 25.796s-18.45 8.144-28.29 5.396l-139.614-38.976c-15.934-4.448-27.062-19.108-27.062-35.652v-112.43h-79.25zM259.784 101.372c0 3.136 2.11 5.914 5.128 6.758l53.756 15.008v-134.196h-58.886v112.43zM348.668-11.058v142.572l55.858 15.594c0.754 0.212 1.458 0.080 2.084-0.398 0.626-0.476 0.944-1.116 0.944-1.902v-155.866zM597.142-11.058v63.316h221.358v-63.316zM994-3.506c0-4.166-3.388-7.552-7.552-7.552h-137.948v63.316h145.5zM244.778 229.278c1.584 0 3.196 0.252 4.782 0.786l55.692 18.72c7.852 2.638 12.078 11.144 9.438 18.998s-11.146 12.082-18.998 9.438l-55.692-18.72c-7.852-2.638-12.078-11.144-9.438-18.998 2.106-6.266 7.95-10.224 14.216-10.224zM662.834 339.242h147.102c13.95 0 25.298 11.348 25.298 25.296v36.106c0 13.95-11.348 25.298-25.298 25.298h-147.102c-13.95 0-25.296-11.348-25.296-25.298v-36.106c0-13.948 11.348-25.296 25.296-25.296zM667.538 395.942h137.696v-26.7h-137.696zM662.834 225.182h147.102c13.95 0 25.298 11.348 25.298 25.298v36.106c0 13.95-11.348 25.296-25.298 25.296h-147.102c-13.95 0-25.296-11.348-25.296-25.296v-36.106c0-13.95 11.348-25.298 25.296-25.298zM667.538 281.882h137.696v-26.7h-137.696zM662.834 109.956h48.656c13.95 0 25.298 11.348 25.298 25.296v36.106c0 13.95-11.348 25.298-25.298 25.298h-48.656c-13.95 0-25.296-11.348-25.296-25.298v-36.106c0-13.948 11.348-25.296 25.296-25.296zM667.538 166.656h39.25v-26.7h-39.25z" />
<glyph unicode="&#xe915;" glyph-name="construction-machine" d="M769.184 464h-194.368c-16.624 0-30.64-12.976-31.904-29.552l-14.912-194.448c0-17.648 14.352-32 32-32h224c17.648 0 32 14.352 31.952 33.232l-14.864 193.232c-1.28 16.56-15.296 29.536-31.904 29.536zM559.952 238.768l14.864 193.232h81.184v-192.704zM688 239.472v192.528h81.184l14.848-192zM928 336h-49.28l-8.672 103.968c-3.376 40.496-32.432 73.424-70.048 84.080v67.952h-32v-64h-90.144l-405.856 343.424v32.576c0 22.048-17.952 40-40 40-8.592 0-17.104-2.832-24-8l-44.816-33.6c-12.016-9.024-19.184-23.376-19.184-38.4v-9.376l-81.936-81.936c-9.072-9.056-14.064-21.12-14.064-33.952v-44.112c0-19.024 13.856-34.784 32-37.952v-160.672c-17.648 0-32-14.352-32-32v-32c0-7.2 2.48-13.776 6.512-19.136-24.8-26.192-38.512-60.208-38.512-96.416 0-77.44 63.008-140.448 140.448-140.448h59.904l-7.136-17.824c-7.312-18.336-24.8-30.176-44.544-30.176-28.672 0-54.56-15.872-67.568-41.424l-10.48-20.592c-1.76-3.456-4.752-6.016-8.448-7.232l-6.976-2.304c-21.936-7.2-40.432-23.184-50.768-43.824-2.896-5.792-4.432-12.272-4.432-18.736 0-23.104 18.784-41.888 41.888-41.888h774.112c61.76 0 112 50.24 112 112 0 31.328-12.96 59.648-33.76 80h49.76c26.464 0 48 21.536 48 48v64c0 44.112-35.888 80-80 80zM973.056 272h-29.056v29.056c13.552-4.832 24.224-15.504 29.056-29.056zM880 304h32v-32h-32zM628.32 528h-55.872c-34.96 0-65.584-18.624-82.368-46.672l-218.080 276.224v71.952zM439.024 148.816l-52.576 21.040c-5.456 2.192-10.208 5.824-13.728 10.512l-25.52 34.032c-12.016 16.032-31.168 25.6-51.2 25.6h-24v25.888l-32 16v118.112c17.648 0 32 14.352 32 32v273.92l205.424-260.208c-0.432-3.072-0.736-6.208-0.88-9.376l-12.080-270.944c-9.248-4.336-17.776-9.968-25.44-16.576zM176 400h32v-137.888l32-16v-38.112h-64zM80 738.736c0 4.272 1.664 8.304 4.688 11.328l59.312 59.312v-66.752l-52.688-52.688c-3.808-3.808-11.312-0.72-11.312 4.688zM112 665.712c0.624 0.56 1.344 0.992 1.936 1.6l30.064 30.064v-201.376h-32zM80 464h96v400c0 5.008 2.384 9.792 6.4 12.8l44.784 33.584c4.976 3.728 12.816-0.24 12.816-6.384l0.016-472h-160.016zM48 316.448c0 28.976 11.28 56.208 31.76 76.688l6.864 6.864h57.376v-191.232c-53.952 6.208-96 52.096-96 107.68zM57.888-16c-5.456 0-9.888 4.432-9.888 9.888 0 1.52 0.352 3.056 1.040 4.416 6.528 13.072 18.256 23.184 32.144 27.744l6.992 2.304c11.76 3.856 21.344 12.064 26.976 23.12l10.48 20.592c7.504 14.768 22.464 23.936 39.040 23.936 32.912 0 62.064 19.744 74.288 50.288l12.8 32.016c11.824 4.704 20.24 16.208 20.24 29.696h24c10.016 0 19.584-4.784 25.6-12.8l25.52-34.032c7.040-9.392 16.528-16.656 27.424-21.008l42.512-17.008c-10.736-17.2-17.056-37.424-17.056-59.152 0-31.328 12.96-59.648 33.76-80zM656 48v-64h-32v64zM720 48v-64h-32v64zM752-16v64h32v-64zM816-16v64h32v-62.384c-5.168-1.056-10.528-1.616-16-1.616zM912 64c0-26.032-12.688-48.976-32-63.584v47.584c0 17.648-14.352 32-32 32h-290.944c-6.624 18.576-24.224 32-45.056 32-26.464 0-48-21.536-48-48s21.536-48 48-48c20.832 0 38.432 13.424 45.056 32h34.944v-64h-80c-44.112 0-80 35.888-80 80s35.888 80 80 80h320c44.112 0 80-35.888 80-80zM528 64c0-8.816-7.184-16-16-16s-16 7.184-16 16 7.184 16 16 16 16-7.184 16-16zM960 176h-448c-5.104 0-10.144-0.336-15.072-1.008l11.584 259.92c1.552 34.256 29.632 61.088 63.936 61.088h201.952c33.024 0 61.024-25.776 63.776-58.688l9.824-117.952v-47.36c0-17.648 14.352-32 32-32h96v-48c0-8.816-7.184-16-16-16zM304 144h32v-32h-32zM336 48h32v-32h-32zM240 80h32v-32h-32zM176 48h32v-32h-32z" />
<glyph unicode="&#xe916;" glyph-name="construction" d="M974.452 926.968h-154.178c-23.899 0-44.395-17.061-48.723-40.564l-22.231-120.7c-14.898 19.39-35.196 34.486-58.814 42.43-13.097 39.721-44.428 70.639-84.397 83.192l-14.997 29.993c-11.941 23.866-35.923 38.681-62.596 38.681-25.501 0-48.541-13.543-60.945-35.592-40.283-12.618-71.812-43.883-84.761-84.018-32.19-13.642-56.072-41.373-64.661-75.693l-1.553-6.243c-41.555-14.121-73.199-49.763-81.887-93.217l-0.512-2.527h-2.973c-18.217 0-33.032-14.815-33.032-33.032v-33.032c0-18.217 14.815-33.032 33.032-33.032h1.569l13.494-134.92c-16.582-4.724-30.39-15.641-38.912-30.241h-13.097l-88.246 323.584c-6.375 23.42-27.797 39.771-52.059 39.771-29.762 0-53.975-24.213-53.975-53.975v-7.251c0-4.641 0.595-9.282 1.767-13.741l75.892-288.388h-11.594c-18.217 0-33.032-14.815-33.032-33.032v-33.032c0-18.217 14.815-33.032 33.032-33.032h0.727l14.369-316.069c1.206-26.508 22.957-47.286 49.499-47.286h794.244c18.217 0 33.032 14.815 33.032 33.032v132.129c0 18.217-14.815 33.032-33.032 33.032h-99.097v132.129c0 18.217-14.815 33.032-33.032 33.032h-29.646l92.903 495.484h118.421c27.318 0 49.548 22.231 49.548 49.548v33.032c0 27.318-22.231 49.548-49.548 49.548zM334.319 729.27l9.629 2.411 6.243 25.005c6.557 26.228 25.782 46.988 51.415 55.527l8.605 2.857 2.197 8.803c8.704 34.816 35.757 61.853 70.557 70.557l7.366 1.833 5.153 10.29c6.293 12.585 18.944 20.414 33.032 20.414s26.74-7.829 33.032-20.414l21.669-43.305 7.366-1.833c34.816-8.704 61.853-35.741 70.557-70.557l2.411-9.629 9.629-2.395c32.652-8.159 58.285-34.287 66.246-66.874l-9.084-49.251h-462.154c8.060 32.471 33.511 58.401 66.131 66.56zM231.226 629.677h493.039l-6.078-33.032h-486.962zM712.093 563.613l-48.673-264.258h-101.871c-18.217 0-33.032-14.815-33.032-33.032v-132.129h-74.306l7.515 165.161h0.727c18.217 0 33.032 14.815 33.032 33.032v33.032c0 18.217-14.815 33.032-33.032 33.032h-141.312c-9.001 15.426-23.899 26.905-41.736 31.116l-13.411 134.045zM330.323 365.419h132.129v-33.032h-141.312c5.682 9.761 9.183 20.942 9.183 33.032zM264.258 398.452c18.217 0 33.032-14.815 33.032-33.032s-14.815-33.032-33.032-33.032-33.032 14.815-33.032 33.032 14.815 33.032 33.032 33.032zM33.726 695.279c-0.462 1.701-0.694 3.501-0.694 5.302v7.251c0 11.561 9.398 20.942 20.942 20.942 9.414 0 17.722-6.342 20.199-15.426l85.884-314.897h-48.227zM66.065 365.419h132.129c0-12.090 3.501-23.271 9.183-33.032h-141.312zM245.975 299.355c-11.099-96.074-59.458-182.057-135.151-241.185l-10.95 241.185zM130.659-30.968c-8.853 0-16.103 6.92-16.5 15.756l-1.536 33.726c94.34 65.305 154.508 166.714 166.582 280.84h149.454l-7.564-166.35c-14.171-3.716-24.708-16.533-24.708-31.843v-132.129zM429.419 101.161h231.226v-132.129h-231.226zM924.92-30.968h-231.242v132.129h231.226zM792.774 134.194h-231.226v132.129h231.226zM729.517 299.355h-32.52l91.268 495.484h34.155zM990.968 844.387c0-9.117-7.416-16.516-16.516-16.516h-180.092l9.678 52.554c1.437 7.812 8.275 13.51 16.235 13.51h154.178c9.1 0 16.516-7.399 16.516-16.516zM462.452 794.839h33.032c0 18.217 14.815 33.032 33.032 33.032v33.032c-36.435 0-66.065-29.63-66.065-66.065zM363.355 695.742h33.032c0 18.217 14.815 33.032 33.032 33.032v33.032c-36.435 0-66.065-29.63-66.065-66.065zM594.581 761.806v-33.032c18.217 0 33.032-14.815 33.032-33.032h33.032c0 36.435-29.63 66.065-66.065 66.065z" />
<glyph unicode="&#xe917;" glyph-name="interior-design" d="M224 2.898c35.344 0 64 28.648 64 64 0 35.344-28.656 64-64 64s-64-28.656-64-64c0-35.352 28.656-64 64-64zM224 98.898c17.672 0 32-14.328 32-32s-14.328-32-32-32-32 14.328-32 32c0 17.672 14.328 32 32 32zM928-29.102v584.75l-416 266.242-358.992-229.75-8.516 64c18.086 10.625 32.219 26.844 40.258 46.211l327.25 209.539 487.375-311.906 17.25 26.914-504.625 322.992-320.289-205.039c-3.070 98.047-80.047 192.219-83.391 196.25l-12.32 14.898-12.305-14.93c-3.453-4.141-83.695-102.578-83.695-202.172 0.055-34.039 18.125-65.508 47.508-82.703l-31.367-235.203-0.141-482.094h32v464h96v-193.43l-25.25-14.57h-38.75v-256h768v256h-34.445l-43.375 161.344-34.18-9.156v231.813h-448v-286.289l-112-64.672v190.961l-18.352 138.219 354.352 226.789 384-245.766v-599.242h128v32zM50.273 434.898l27.969 209.711c11.727-2.281 23.789-2.281 35.516 0l27.969-209.711zM112 677.172v61.727h-32v-61.727c-28.172 7.273-47.891 32.633-48 61.727 0 65.914 42.414 134.609 64 165.297 21.633-30.594 64-99.047 64-165.297-0.109-29.094-19.828-54.453-48-61.727zM496-29.102h-128v192h128zM656-29.102h-128v192h128zM816 162.898v-192h-128v192zM747.586 317.055l32.828-122.156h-488.539zM528 546.898h176v-154.305l-60.703 105.117-115.297-66.563zM320 546.898h176v-128h-176zM320 386.898h131.328l-131.328-75.828zM631.586 454l67.453-116.797-503.727-135.078zM336 162.898v-192h-224v192z" />
<glyph unicode="&#xe918;" glyph-name="link" d="M424.522 179.515l-120.663-120.663c-50.024-50.024-131.035-50.024-181.017-0.010-49.992 49.992-49.992 131.011-0.010 180.993l241.367 241.367c49.982 49.984 131.001 49.984 180.983 0 16.662-16.662 43.678-16.662 60.34 0s16.662 43.678 0 60.34c-83.308 83.308-218.355 83.308-301.664 0l-241.365-241.365c-83.308-83.308-83.308-218.355 0-301.664 83.298-83.352 218.355-83.352 301.708 0l120.663 120.663c16.662 16.662 16.662 43.678 0 60.34s-43.68 16.66-60.342-0.002zM961.508 897.52c-83.308 83.308-218.399 83.308-301.708 0l-144.769-144.769c-16.662-16.662-16.662-43.678 0-60.34s43.678-16.662 60.34 0l144.769 144.769c49.982 49.984 131.043 49.984 181.027 0 49.982-49.982 49.982-131.001 0-180.983l-265.474-265.476c-49.984-49.984-131.001-49.984-180.983 0-16.662 16.662-43.678 16.662-60.34 0s-16.662-43.678 0-60.34c83.308-83.308 218.355-83.308 301.664 0l265.474 265.474c83.308 83.308 83.308 218.357 0 301.666z" />
<glyph unicode="&#xe919;" glyph-name="share" d="M812 296c-59.282 0-111.522-29.162-144.334-73.51l-283.686 145.262c4.71 16.054 8.020 32.692 8.020 50.248 0 23.812-4.882 46.45-13.316 67.272l296.89 178.656c33.040-38.776 81.604-63.928 136.426-63.928 99.258 0 180 80.742 180 180s-80.742 180-180 180c-99.258 0-180-80.742-180-180 0-22.874 4.71-44.572 12.524-64.716l-297.774-179.18c-33.012 37.624-80.876 61.896-134.75 61.896-99.258 0-180-80.742-180-180s80.742-180 180-180c60.26 0 113.382 30.018 146.070 75.612l282.752-144.79c-5.208-16.812-8.822-34.322-8.822-52.822 0-99.258 80.742-180 180-180s180 80.742 180 180c0 99.258-80.742 180-180 180z" />
<glyph unicode="&#xe91a;" glyph-name="facebook-1" d="M1024 448c0 282.8-229.2 512-512 512s-512-229.2-512-512 229.2-512 512-512c3 0 6 0 9 0.2v398.4h-110v128.2h110v94.4c0 109.4 66.8 169 164.4 169 46.8 0 87-3.4 98.6-5v-114.4h-67.2c-53 0-63.4-25.2-63.4-62.2v-81.6h127l-16.6-128.2h-110.4v-379c214 61.4 370.6 258.4 370.6 492.2z" />
<glyph unicode="&#xe91b;" glyph-name="letter-v" d="M831.791 960l-0.006-0.092c-48.72-0.415-94.967-29.451-114.729-77.156l-205.074-495.024-205.035 495.039c-0.101 0.221-0.194 0.452-0.304 0.673-29.269 63.149-100.362 92.407-162.946 67.054h-0.12c-63.615-26.342-94.037-99.775-67.685-163.382l320.555-773.941c21.033-50.747 68.649-77.17 115.525-77.17s94.478 26.423 115.511 77.17c108.844 245.789 215.943 517.834 320.623 773.912 26.354 63.604-4.058 137.034-67.667 163.382-15.902 6.589-32.424 9.63-48.664 9.492z" />
<glyph unicode="&#xe91c;" glyph-name="letter-x" d="M964.308 8.704l-308.508 445.070c-2.945 4.107-4.709 9.233-4.709 14.772 0 5.553 1.773 10.692 4.785 14.882l-0.052-0.076 280.936 403.91c2.962 4.099 4.737 9.225 4.737 14.766 0 4.415-1.127 8.566-3.11 12.182l0.066-0.132c-4.278 8.326-12.808 13.924-22.645 13.924-0.118 0-0.237-0.001-0.355-0.002h-193.17c-0.109 0.002-0.238 0.003-0.366 0.003-8.727 0-16.419-4.429-20.95-11.162l-0.057-0.090-172.426-251.014c-4.738-6.833-12.542-11.252-21.377-11.252-8.864 0-16.69 4.448-21.366 11.233l-0.057 0.087-171.154 250.878c-4.584 6.862-12.299 11.321-21.055 11.321-0.128 0-0.257-0.001-0.384-0.003h-189.463c-0.101 0.001-0.22 0.002-0.339 0.002-9.802 0-18.305-5.559-22.53-13.695l-0.067-0.141c-1.945-3.505-3.090-7.686-3.090-12.134 0-5.472 1.733-10.54 4.679-14.684l-0.053 0.078 283.010-413.626c2.89-4.081 4.62-9.161 4.62-14.646 0-5.586-1.795-10.754-4.839-14.957l0.051 0.074-305.3-435.454c-2.939-4.147-4.698-9.311-4.698-14.886 0-14.321 11.608-25.93 25.928-25.932h190.31c0.109-0.002 0.237-0.003 0.366-0.003 8.675 0 16.327 4.378 20.868 11.045l0.056 0.087 193.342 278.070c4.746 6.763 12.509 11.129 21.292 11.129 8.703 0 16.406-4.288 21.109-10.866l0.053-0.079 197.178-278.44c4.607-6.648 12.196-10.947 20.789-10.947 0.13 0 0.261 0.001 0.39 0.003h196.246c14.321 0.001 25.931 11.611 25.931 25.932 0 5.526-1.728 10.648-4.674 14.856l0.055-0.084z" />
<glyph unicode="&#xe91d;" glyph-name="light-bulb" d="M512.001 857.601c9.425 0 17.066 7.642 17.066 17.066v68.266c0 9.425-7.642 17.066-17.066 17.066s-17.066-7.642-17.066-17.066v-68.266c0-9.425 7.639-17.066 17.066-17.066zM300.957 881.801l34.133-59.101c4.659-8.194 15.078-11.059 23.272-6.4s11.059 15.078 6.4 23.272c-0.036 0.066-0.075 0.13-0.113 0.196l-34.133 59.101c-4.659 8.194-15.078 11.059-23.272 6.4s-11.059-15.078-6.4-23.272c0.036-0.066 0.075-0.132 0.113-0.196zM163.341 732.002c0.064-0.038 0.13-0.075 0.196-0.113l59.101-34.133c8.132-4.766 18.588-2.039 23.353 6.093s2.039 18.588-6.093 23.353c-0.064 0.038-0.13 0.075-0.196 0.113l-59.101 34.133c-8.132 4.766-18.588 2.039-23.353-6.093-4.766-8.13-2.039-18.588 6.093-23.353zM204.804 550.404c0 9.425-7.642 17.066-17.066 17.066h-68.266c-9.425 0-17.066-7.642-17.066-17.066s7.642-17.066 17.066-17.066h68.266c9.425 0 17.066 7.642 17.066 17.066zM222.837 403.167c-0.066-0.038-0.132-0.077-0.198-0.115l-59.101-34.133c-8.194-4.657-11.061-15.076-6.404-23.27s15.076-11.061 23.27-6.404c0.066 0.038 0.132 0.077 0.198 0.115l59.101 34.133c8.194 4.657 11.061 15.076 6.404 23.27s-15.076 11.061-23.27 6.404zM860.663 368.804c-0.066 0.038-0.132 0.077-0.198 0.115l-59.101 34.133c-8.13 4.768-18.588 2.042-23.355-6.088s-2.042-18.588 6.088-23.355c0.066-0.038 0.132-0.077 0.198-0.115l59.101-34.133c8.13-4.768 18.588-2.042 23.355 6.088 4.768 8.132 2.042 18.588-6.088 23.355zM904.53 567.471h-68.266c-9.425 0-17.066-7.642-17.066-17.066s7.642-17.066 17.066-17.066h68.266c9.425 0 17.066 7.642 17.066 17.066s-7.642 17.066-17.066 17.066zM792.847 695.469c2.995 0 5.939 0.789 8.533 2.287l59.101 34.133c8.194 4.659 11.059 15.078 6.4 23.272s-15.078 11.059-23.272 6.4c-0.066-0.036-0.13-0.075-0.196-0.113l-59.101-34.133c-8.162-4.712-10.959-15.151-6.246-23.313 3.051-5.28 8.685-8.533 14.782-8.533zM665.578 816.447c0.006-0.004 0.013-0.009 0.019-0.011 8.164-4.708 18.602-1.907 23.311 6.259 0 0.002 0.002 0.004 0.002 0.004l34.133 59.101c4.768 8.13 2.042 18.588-6.088 23.355s-18.588 2.042-23.355-6.088c-0.038-0.066-0.077-0.132-0.115-0.198l-34.133-59.101c-4.719-8.16-1.931-18.6 6.227-23.321zM546.134 277.34c9.425 0 17.066 7.642 17.066 17.066v187.731h34.133c37.702 0 68.266 30.564 68.266 68.266s-30.564 68.266-68.266 68.266c-37.702 0-68.266-30.564-68.266-68.266v-34.133h-34.133v34.133c0 37.702-30.564 68.266-68.266 68.266s-68.266-30.564-68.266-68.266 30.564-68.266 68.266-68.266h34.133v-187.731c0-9.425 7.642-17.066 17.066-17.066s17.066 7.642 17.066 17.066v187.731h34.133v-187.731c0-9.425 7.639-17.066 17.066-17.066zM563.201 550.404c0 18.852 15.281 34.133 34.133 34.133s34.133-15.281 34.133-34.133-15.281-34.133-34.133-34.133h-34.133v34.133zM460.802 516.271h-34.133c-18.852 0-34.133 15.281-34.133 34.133s15.281 34.133 34.133 34.133 34.133-15.281 34.133-34.133v-34.133zM525.262 823.144c-150.635 7.236-278.617-109.010-285.853-259.645-4.145-86.254 32.755-169.385 99.504-224.173 12.030-9.423 19.187-23.754 19.49-39.031v-40.021c0.090-21.619 13.749-40.853 34.133-48.059v-20.207c0.045-12.636 4.789-24.804 13.312-34.133-17.749-19.294-17.749-48.972 0-68.266-18.974-20.8-17.493-53.043 3.307-72.016 9.448-8.619 21.792-13.372 34.581-13.316 9.186-0.241 16.83 7.012 17.069 16.198 0.094 3.584-0.973 7.104-3.040 10.033-0.54 1.043-1.18 2.033-1.911 2.953-1.404 1.284-3.006 2.334-4.744 3.106-0.495 0.256-0.99 0.461-1.502 0.666-1.728 0.629-3.539 0.992-5.376 1.075-0.171 0-0.324 0.102-0.495 0.102-9.425 0-17.066 7.642-17.066 17.066s7.642 17.066 17.066 17.066h68.266c9.425 0 17.066 7.642 17.066 17.066s-7.642 17.066-17.066 17.066h-68.266c-9.425 0-17.066 7.642-17.066 17.066s7.642 17.066 17.066 17.066h68.266c9.425 0 17.066 7.642 17.066 17.066s-7.642 17.066-17.066 17.066h-68.266c-9.425 0-17.066 7.642-17.066 17.066v17.066h85.332c9.425 0 17.066 7.642 17.066 17.066s-7.642 17.066-17.066 17.066h-102.399c-9.425 0-17.066 7.642-17.066 17.066v40.021c-0.279 25.519-12.032 49.557-32 65.45-101.947 83.784-116.669 234.348-32.885 336.295 47.927 58.316 120.592 90.555 195.989 86.954 126.094-7.501 225.141-110.84 227.291-237.139 0.612-72.644-32.051-141.573-88.66-187.1-19.818-16.324-31.151-40.765-30.805-66.44v-38.041c0-9.425-7.642-17.066-17.066-17.066h-51.199c-9.425 0-17.066-7.642-17.066-17.066s7.642-17.066 17.066-17.066h34.133v-17.066c0-9.425-7.642-17.066-17.066-17.066h-17.066c-9.425 0-17.066-7.642-17.066-17.066s7.642-17.066 17.066-17.066h17.066c9.425 0 17.066-7.642 17.066-17.066s-7.642-17.066-17.066-17.066h-17.066c-9.425 0-17.066-7.642-17.066-17.066s7.642-17.066 17.066-17.066h17.066c9.425 0 17.066-7.642 17.066-17.066s-7.642-17.066-17.066-17.066h-85.332c-9.425 0-17.066-7.642-17.066-17.066s7.642-17.066 17.066-17.066h65.348c-9.423-26.66-38.675-40.633-65.335-31.21-8.162 2.884-15.458 7.793-21.209 14.263-6.268 7.040-17.058 7.667-24.098 1.399s-7.667-17.058-1.399-24.098c31.212-35.172 85.027-38.383 120.199-7.172 14.528 12.892 24.211 30.361 27.443 49.514 26.728 8.354 41.623 36.793 33.271 63.521-2.219 7.102-5.975 13.628-10.999 19.114 17.749 19.294 17.749 48.972 0 68.266 8.523 9.329 13.267 21.497 13.312 34.133v20.207c20.384 7.206 34.043 26.44 34.133 48.059v38.041c-0.228 15.332 6.415 29.964 18.108 39.884 64.733 52.042 102.079 130.855 101.358 213.911-2.466 144.357-115.681 262.463-259.803 271.033z" />
<glyph unicode="&#xe91e;" glyph-name="engineer" d="M972.799 110.082c-101.86 54.015-179.991 84.304-249.545 95.916l7.198 9.896c3.414 3.414 5.12 8.534 3.414 13.654l-15.994 63.975c42.301 59.8 67.193 134.562 67.193 205.678v68.267h51.199c10.24 0 17.066 6.826 17.066 17.066s-6.826 17.066-17.066 17.066h-17.066v17.066c0 134.826-88.747 249.173-221.867 286.72v3.416c0 27.308-22.186 51.199-51.199 51.199h-68.267c-27.308 0-51.199-22.186-51.199-51.199v-3.414c-133.12-37.548-221.867-151.894-221.867-286.72v-17.066h-17.066c-10.24 0-17.066-6.826-17.066-17.066s6.826-17.066 17.066-17.066h51.199v-68.267c0-71.116 24.892-145.877 67.193-205.68l-15.994-63.975c0-3.414 0-10.24 3.414-13.654l7.198-9.896c-69.552-11.614-147.685-41.901-249.545-95.916-32.426-15.362-51.199-47.787-51.199-83.627v-73.387c0-10.24 6.826-17.066 17.066-17.066h989.866c10.24 0 17.066 6.826 17.066 17.066v73.387c0.002 34.134-20.48 66.559-51.199 83.627zM501.765 125.879l10.331 23.245 25.508-56.12 16.683-37.535h-83.247l30.724 70.41zM458.069 21.335h107.732l9.752-51.199h-127.724l10.24 51.199zM691.199 260.268l6.826-30.72-17.434-23.938c-1.112-0.909-2.141-2.011-3.046-3.367l-70.988-98.291-22.525-30.929-46.010 103.523c54.998 6.708 104.092 34.317 143.744 73.993 0.439 0.435 0.88 0.866 1.318 1.305 0.106 0.108 0.211 0.216 0.317 0.323 2.629 2.637 5.23 5.333 7.798 8.101zM668.964 835.176c1.895-1.261 3.774-2.542 5.632-3.847 21.755-16.212 41.836-35.203 57.564-55.648l-78.507-15.36 15.311 74.855zM370.347 760.321l-78.507 15.36c15.728 20.447 35.811 39.438 57.566 55.65 1.856 1.303 3.735 2.584 5.63 3.845l15.311-74.855zM238.933 618.667c0 45.414 11.433 88.259 32.127 125.701l118.061-23.302c1.706 0 1.706 0 3.414 0 5.12 0 8.534 1.706 13.654 3.414 5.12 3.414 6.826 10.24 5.12 15.36l-23.43 114.029c12.34 5.937 25.291 11.037 38.79 15.23v-45.632c0-10.24 6.826-17.066 17.066-17.066s17.066 6.826 17.066 17.066v85.335c0 8.534 6.826 17.066 17.066 17.066h68.267c8.534 0 17.066-6.826 17.066-17.066v-85.333c0-10.24 6.826-17.066 17.066-17.066s17.066 6.826 17.066 17.066v45.63c13.949-4.331 27.318-9.626 40.026-15.817l-22.958-111.736c0-5.12 1.706-11.946 5.12-15.36s6.826-5.12 11.946-5.12c1.706 0 1.706 0 3.414 0l117.297 24.695c21.179-37.771 32.889-81.118 32.889-127.093v-17.066h-546.128v17.066zM273.066 567.467h477.865v-68.267c0-74.418-25.528-140.548-63.857-190.814l-0.996-0.331c-1.706-1.706-3.414-3.414-5.12-5.12-8.587-11.45-17.649-21.889-27.119-31.301-40.185-37.438-88.116-60.113-134.302-62.36-2.324 0.998-4.931 1.501-7.54 1.501-2.623 0-4.988-0.514-7.109-1.523-28.271 1.297-57.206 10.258-84.633 25.587-27.785 15.964-53.924 38.977-77.22 68.096-1.706 1.706-3.414 3.414-5.12 5.12l-0.996 0.331c-38.328 50.268-63.857 116.398-63.857 190.814v68.267zM485.976 176.541l-46.010-103.523-22.525 30.929-70.988 98.291c-0.543 0.543-1.145 1.082-1.767 1.612l-18.713 25.695 6.826 30.72c2.314-2.491 4.66-4.919 7.029-7.308 40.065-40.974 90.034-69.572 146.148-76.417zM34.134 26.455c0 22.186 11.946 42.667 32.428 52.907 108.785 57.793 187.097 86.799 256.857 95.463l101.846-140.036-12.93-64.652h-378.2v56.317zM989.866-29.866h-378.198l-12.93 64.652 102.948 141.552c69.516-10.49 149.228-39.473 255.752-95.272 20.48-11.946 32.428-32.428 32.428-54.613v-56.319z" />
<glyph unicode="&#xe91f;" glyph-name="star" d="M1024 564.368l-372.078 24.462-140.126 352.032-140.126-352.032-371.67-24.462 285.068-242.052-93.544-367.178 320.272 202.442 320.274-202.442-93.544 367.178z" />
<glyph unicode="&#xe920;" glyph-name="star-1" d="M279.893 331.093l-47.36-276.907c-1.28-8.107 1.92-16 8.533-20.907 6.613-4.693 15.36-5.333 22.4-1.707l248.533 130.987 248.533-130.773c3.2-1.707 6.613-2.347 10.027-2.347 4.48 0 8.747 1.28 12.587 4.053 6.613 4.693 9.813 12.8 8.533 20.907l-47.36 276.907 201.173 196.053c5.76 5.76 7.893 14.080 5.333 21.973-2.56 7.68-9.173 13.44-17.28 14.507l-277.973 40.32-124.373 251.52c-7.253 14.507-31.147 14.507-38.187 0l-124.373-251.733-277.973-40.533c-8.107-1.067-14.72-6.827-17.28-14.507s-0.427-16.213 5.333-21.973zM385.707 563.2c7.040 1.067 13.013 5.333 16 11.733l110.293 223.147 110.080-223.147c3.2-6.4 9.173-10.667 16-11.733l246.187-35.84-178.133-173.653c-5.12-4.907-7.253-11.947-6.187-18.987l42.027-245.333-220.16 115.84c-3.2 1.707-6.613 2.347-10.027 2.347s-6.827-0.853-10.027-2.347l-219.947-115.627 42.027 245.333c1.28 6.827-1.067 14.080-6.187 18.987l-178.133 173.653z" />
<glyph unicode="&#xe921;" glyph-name="left-arrow" d="M1017.232 464.407v0l-232.722 232.724c-8.36 9.762-23.052 10.9-32.813 2.538-9.762-8.36-10.9-23.052-2.538-32.813 0.78-0.91 1.628-1.76 2.538-2.538l192.927-193.161h-921.352c-12.852 0-23.272-10.42-23.272-23.274s10.42-23.272 23.272-23.272h921.352l-192.927-192.927c-9.762-8.36-10.9-23.052-2.538-32.813s23.052-10.9 32.813-2.538c0.91 0.78 1.76 1.628 2.538 2.538l232.724 232.724c9.022 9.074 9.022 23.734-0.002 32.811z" />
<glyph unicode="&#xe922;" glyph-name="left-arrow1" d="M6.768 431.593v0l232.722-232.724c8.36-9.762 23.052-10.9 32.813-2.538 9.762 8.36 10.9 23.052 2.538 32.813-0.78 0.91-1.628 1.76-2.538 2.538l-192.927 193.161h921.352c12.852 0 23.272 10.42 23.272 23.274s-10.42 23.272-23.272 23.272h-921.352l192.927 192.927c9.762 8.36 10.9 23.052 2.538 32.813s-23.052 10.9-32.813 2.538c-0.91-0.78-1.76-1.628-2.538-2.538l-232.724-232.724c-9.022-9.074-9.022-23.734 0.002-32.811z" />
<glyph unicode="&#xe923;" glyph-name="right-chevron" d="M742.72 425.28l-416-416c-5.8-5.846-13.837-9.466-22.72-9.466s-16.92 3.619-22.718 9.463l-0.002 0.002c-5.846 5.8-9.466 13.837-9.466 22.72s3.619 16.92 9.463 22.718l393.602 393.282-393.6 393.28c-5.815 5.815-9.411 13.847-9.411 22.72 0 17.745 14.386 32.131 32.131 32.131 8.873 0 16.905-3.596 22.72-9.411l416-416c5.846-5.8 9.466-13.837 9.466-22.72s-3.619-16.92-9.463-22.718l-0.002-0.002z" />
<glyph unicode="&#xe924;" glyph-name="left-chevron" d="M281.28 470.72l416 416c5.8 5.846 13.837 9.466 22.72 9.466s16.92-3.619 22.718-9.463l0.002-0.002c5.846-5.8 9.466-13.837 9.466-22.72s-3.619-16.92-9.463-22.718l-393.602-393.282 393.6-393.28c5.815-5.815 9.411-13.847 9.411-22.72 0-17.745-14.386-32.131-32.131-32.131-8.873 0-16.905 3.596-22.72 9.411l-416 416c-5.846 5.8-9.466 13.837-9.466 22.72s3.619 16.92 9.463 22.718l0.002 0.002z" />
<glyph unicode="&#xe925;" glyph-name="telegram" d="M401.792 312.277l-16.939-238.251c24.235 0 34.731 10.411 47.317 22.912l113.621 108.587 235.435-172.416c43.179-24.064 73.6-11.392 85.248 39.723l154.539 724.139 0.043 0.043c13.696 63.829-23.083 88.789-65.152 73.131l-908.373-347.776c-61.995-24.064-61.056-58.624-10.539-74.283l232.235-72.235 539.435 337.536c25.387 16.811 48.469 7.509 29.483-9.301z" />
<glyph unicode="&#xe926;" glyph-name="dribbble" d="M863.786 819.391l-19.956 18.904-0.679-1.161c-92.746 79.121-209.085 122.866-331.162 122.866-66.395 0-131.102-12.924-192.743-38.071l-0.285 0.285-13.822-6.090c-150.795-66.745-260.803-202.535-294.296-363.209l-3.549-17.042 0.416-0.197c-5.016-29.046-7.711-58.443-7.711-87.686 0-150.861 65.65-291.755 180.455-389.474l-0.175-0.438 13.187-10.493c91.651-72.988 201.79-111.563 318.523-111.563 61.619 0 122.756 11.369 181.747 33.8l14.129 5.367v0.635c170.641 68.432 287.22 220.76 310.79 405.201l1.227-0.438 2.191 28.345c0.898 11.873 1.95 25.3 1.95 39.035-0.044 141.617-56.931 273.508-160.236 371.424zM980.168 447.989c0-2.607-0.044-5.213-0.11-7.798-61.488 18.466-125.056 27.798-189.414 27.798-55.551 0-110.884-7.032-164.749-20.941l-0.11 0.307-0.131-0.044c-11.128 29.944-23.154 59.166-35.946 87.226l0.197 0.088-0.175 0.35c107.642 52.77 197.825 132.811 263.037 233.443 82.363-87.226 127.4-199.994 127.4-320.429zM820.019 799.326c-61.159-97.106-146.874-174.146-249.763-224.593-57.019 114.323-130.248 219.38-218.175 312.981 51.433 18.817 105.057 28.477 159.908 28.477 113.907 0 222.403-41.642 308.030-116.864zM309.125 869.707c89.723-93.119 164.135-198.329 221.571-313.2-73.492-29.879-151.080-45.015-230.946-45.015-84.006 0-165.362 16.692-242.074 49.615 33.405 134.52 125.911 248.098 251.449 308.6zM43.81 447.989c0 23.11 1.796 46.329 5.235 69.396 79.647-32.88 163.807-49.681 250.661-49.681 86.306 0 170.072 16.714 249.434 49.265 12.157-26.615 23.548-54.237 34.172-82.67-167.969-55.551-305.708-175.592-383.866-334.448-99.208 88.957-155.636 214.32-155.636 348.139zM234.254 71.461c72.309 153.227 203.455 269.127 363.998 321.874 41.992-125.078 64.051-255.326 65.694-387.721-49.549-17.108-100.61-25.782-151.956-25.782-101.048-0.022-196.708 31.609-277.735 91.629zM707.142 22.788c-3.242 130.445-25.695 258.722-66.92 382.201 110.577 27.841 227.375 24.359 335.894-9.923-18.378-166.632-119.186-305.862-268.973-372.278z" />
<glyph unicode="&#xe927;" glyph-name="twitter" d="M1024 765.504c-38.080-16.704-78.656-27.776-120.96-33.152 43.52 25.984 76.736 66.816 92.352 116.032-40.576-24.192-85.376-41.28-133.12-50.816-38.528 41.024-93.44 66.432-153.344 66.432-116.224 0-209.792-94.336-209.792-209.984 0-16.64 1.408-32.64 4.864-47.872-174.528 8.512-328.96 92.16-432.704 219.584-18.112-31.424-28.736-67.392-28.736-106.112 0-72.704 37.44-137.152 93.248-174.464-33.728 0.64-66.816 10.432-94.848 25.856 0-0.64 0-1.472 0-2.304 0-102.016 72.768-186.752 168.192-206.272-17.088-4.672-35.712-6.912-55.040-6.912-13.44 0-27.008 0.768-39.744 3.584 27.2-83.136 104.384-144.256 196.16-146.24-71.424-55.872-162.112-89.536-260.288-89.536-17.216 0-33.728 0.768-50.24 2.88 92.992-59.968 203.2-94.208 322.048-94.208 386.304 0 597.504 320 597.504 597.376 0 9.28-0.32 18.24-0.768 27.136 41.664 29.568 76.672 66.496 105.216 108.992z" />
<glyph unicode="&#xe928;" glyph-name="verified" d="M874.038 810.040c-96.704 96.702-225.278 149.96-362.038 149.96-136.762 0-265.336-53.258-362.040-149.96-96.702-96.704-149.96-225.28-149.96-362.040s53.258-265.334 149.96-362.038c96.704-96.704 225.28-149.962 362.040-149.962s265.334 53.258 362.038 149.96c96.704 96.706 149.962 225.28 149.962 362.040s-53.258 265.334-149.962 362.040zM756.612 569.854l-286.13-286.132c-5.858-5.858-13.536-8.786-21.212-8.786-7.678 0-15.356 2.928-21.214 8.786l-160.668 160.666c-11.716 11.714-11.716 30.708 0 42.426 11.714 11.716 30.71 11.716 42.426 0l139.456-139.454 264.916 264.92c11.714 11.716 30.71 11.716 42.426 0s11.716-30.71 0-42.426z" />
<glyph unicode="&#xe929;" glyph-name="analytics" d="M682.47 603.028c0 8.836 7.164 16 16 16h309.53c8.836 0 16-7.164 16-16s-7.164-16-16-16h-309.53c-8.836 0-16 7.162-16 16zM0 734.782c0 124.184 101.032 225.218 225.216 225.218s225.216-101.034 225.216-225.218-101.032-225.216-225.216-225.216-225.216 101.032-225.216 225.216zM417.756 718.698l-164.568 0.072 83.362-141.814c45.384 32.108 76.366 83.272 81.206 141.742zM241.216 927.332v-176.556l176.554-0.078c-7.686 93.844-82.722 168.904-176.554 176.634zM32 734.782c0-106.54 86.676-193.216 193.216-193.216 29.998 0 58.42 6.872 83.776 19.124l-97.57 165.984c-1.446 2.458-2.208 5.258-2.208 8.108v192.55c-99.080-8.162-177.214-91.398-177.214-192.55zM698.47 917.528h309.53c8.836 0 16 7.164 16 16s-7.164 16-16 16h-309.53c-8.836 0-16-7.164-16-16s7.164-16 16-16zM698.47 850.54h154.764c8.836 0 16 7.164 16 16s-7.164 16-16 16h-154.764c-8.836 0-16-7.164-16-16s7.164-16 16-16zM523.044 856.068v87.932c0 8.836 7.164 16 16 16h87.932c8.836 0 16-7.164 16-16v-87.932c0-8.836-7.164-16-16-16h-87.932c-8.836 0-16 7.164-16 16zM555.044 872.068h55.932v55.932h-55.932zM698.47 752.278h309.53c8.836 0 16 7.164 16 16s-7.164 16-16 16h-309.53c-8.836 0-16-7.164-16-16s7.164-16 16-16zM698.47 685.29h154.764c8.836 0 16 7.164 16 16s-7.164 16-16 16h-154.764c-8.836 0-16-7.164-16-16s7.164-16 16-16zM523.044 690.818v87.932c0 8.836 7.164 16 16 16h87.932c8.836 0 16-7.164 16-16v-87.932c0-8.836-7.164-16-16-16h-87.932c-8.836 0-16 7.162-16 16zM555.044 706.818h55.932v55.932h-55.932zM138.44 317.3v-365.3c0-8.836-7.164-16-16-16h-106.44c-8.836 0-16 7.164-16 16v365.3c0 8.836 7.164 16 16 16h106.44c8.836 0 16-7.162 16-16zM106.44 301.3h-74.44v-333.3h74.44zM1014.216 28.616l-40.844-42.092c-6.798-7.006-15.86-10.526-24.928-10.526-8.718 0-17.444 3.252-24.182 9.79l-113.128 109.778c-6.642 6.442-10.378 15.108-10.518 24.402-0.074 4.872 0.87 9.59 2.69 13.944l-43.54 42.25c-15.31-11.456-32.146-20.972-50.134-28.21v-195.952c0-8.836-7.164-16-16-16h-106.438c-8.836 0-16 7.164-16 16v187.114c-19.396 5.042-37.77 12.646-54.734 22.43v-209.544c0-8.836-7.164-16-16-16h-106.438c-8.836 0-16 7.164-16 16v311.3c0 8.836 7.164 16 16 16h23.942c-8.372 23.358-12.948 48.506-12.948 74.708 0 84.866 47.874 158.752 118.028 196.1v63.392c0 8.836 7.164 16 16 16h87.932c8.836 0 16-7.164 16-16v-38.060c30.164-2.152 58.68-10.352 84.338-23.4h125.92c8.836 0 16-7.164 16-16s-7.164-16-16-16h-79c45.852-40.7 74.8-100.044 74.8-166.032 0-42.396-11.952-82.048-32.654-115.78l45.404-44.058c4.298 1.95 8.986 3.036 13.856 3.108 9.33 0.14 18.066-3.334 24.708-9.78l113.128-109.778c13.742-13.336 14.074-35.364 0.74-49.104zM797.502 211.958c-4.27-5.118-8.76-10.046-13.468-14.758l39.828-38.648 13.908 14.332zM555.044 564.032c17.744 6.098 36.494 10.006 55.932 11.4v22.068h-55.932zM437.018 354.008c0-104.77 85.238-190.008 190.010-190.008s190.008 85.238 190.008 190.008c0 104.772-85.236 190.008-190.008 190.008s-190.010-85.236-190.010-190.008zM484.46 183.968c-21.022 17.654-38.736 39.122-52.064 63.332h-22.374v-279.3h74.438zM677.632 137.824c-16.26-3.806-33.202-5.824-50.606-5.824-8.052 0-16 0.442-23.832 1.282v-165.282h74.438zM991.192 54.758l-113.128 109.778c-0.632 0.614-1.37 0.748-1.892 0.748-0.016 0-0.032 0-0.046 0-0.528-0.008-1.288-0.154-1.918-0.804l-40.846-42.094c-0.63-0.65-0.754-1.414-0.746-1.94s0.154-1.284 0.802-1.916l113.132-109.78c1.046-1.014 2.848-0.986 3.86 0.056l40.844 42.094c1.010 1.042 0.982 2.846-0.062 3.858zM323.292 410.708v-458.708c0-8.836-7.164-16-16-16h-106.44c-8.836 0-16 7.164-16 16v458.708c0 8.836 7.164 16 16 16h106.44c8.834 0 16-7.164 16-16zM291.292 394.708h-74.44v-426.708h74.44zM461.028 354.008c0 91.532 74.466 166 166 166s166-74.468 166-166-74.466-166-166-166-166 74.468-166 166zM627.028 220.008c33.2 0 63.596 12.164 87.030 32.234-8.142 41.162-44.244 71.3-87.030 71.3s-78.886-30.138-87.030-71.302c23.434-20.068 53.83-32.232 87.030-32.232zM627.028 355.542c20.38 0 36.96 16.582 36.96 36.962s-16.58 36.96-36.96 36.96-36.96-16.58-36.96-36.96 16.578-36.962 36.96-36.962zM493.028 354.008c0-27.176 8.154-52.474 22.114-73.618 11.688 28.836 34.086 51.842 62.094 64.476-11.86 12.392-19.168 29.172-19.168 47.638 0 38.026 30.936 68.96 68.96 68.96s68.96-30.936 68.96-68.96c0-18.466-7.31-35.246-19.168-47.638 28.008-12.634 50.408-35.64 62.094-64.476 13.958 21.144 22.114 46.44 22.114 73.618 0 73.888-60.112 134-134 134s-134-60.112-134-134z" />
<glyph unicode="&#xe92a;" glyph-name="check-mark" d="M472.59 52.498c-5.71 0.001-10.852 2.431-14.448 6.314l-0.012 0.013-389.882 421.74c-3.243 3.5-5.232 8.201-5.232 13.367 0 10.876 8.816 19.692 19.692 19.692h187.668c5.921-0.001 11.232-2.614 14.844-6.749l130.32-149.929c14.082 30.102 41.342 80.223 89.179 141.296 70.719 90.289 202.26 223.076 427.311 342.947 2.68 1.455 5.868 2.311 9.256 2.311 10.876 0 19.692-8.817 19.692-19.692 0-6.29-2.949-11.891-7.539-15.496l-0.043-0.032c-0.859-0.672-87.631-69.004-187.494-194.166-91.908-115.18-214.083-303.518-274.202-546.658-2.194-8.66-9.918-14.965-19.115-14.966v0z" />
<glyph unicode="&#xe92b;" glyph-name="bed" d="M946.336 280.208c0-14.739-11.949-26.688-26.688-26.688s-26.688 11.949-26.688 26.688c0 14.739 11.949 26.688 26.688 26.688s26.688-11.949 26.688-26.688zM969.344 543.68v216c-0.036 34.522-28.007 62.498-62.524 62.544h-789.636c-34.521-0.046-62.492-28.022-62.528-62.541v-216.003c-26.833-13.945-44.863-41.497-44.944-73.269v-397.291c0-8.837 7.163-16 16-16v0h121.184c7.326 0.002 13.501 4.927 15.397 11.647l0.027 0.113 32.88 119.392h633.6l32.864-119.312c1.923-6.833 8.098-11.758 15.424-11.76h121.184c8.837 0 16 7.163 16 16v0 397.2c-0.077 31.779-18.102 59.331-44.471 73.063l-0.457 0.217zM982.288 220.272h-940.576v232.336h75.92l68.912-57.904c29.411-24.84 67.736-39.953 109.59-40h431.722c41.864 0.047 80.189 15.16 109.854 40.209l-0.254-0.209 68.912 57.904h75.92zM900.544 484.608c-0.001 0-0.002 0-0.003 0-3.928 0-7.525-1.415-10.309-3.764l0.024 0.020-73.392-61.664c-23.892-20.152-55.016-32.407-89.003-32.432h-431.717c-33.992 0.025-65.116 12.28-89.216 32.603l0.208-0.171-73.392 61.664c-2.761 2.329-6.358 3.744-10.285 3.744-0.001 0-0.002 0-0.003 0h-79.488c6.275 21.29 25.603 36.581 48.517 36.672h839.019c22.925-0.091 42.253-15.382 48.437-36.313l0.091-0.359zM211.824 553.6v77.392c0.018 9.335 7.59 16.896 16.928 16.896 0.017 0 0.034 0 0.051 0h182.893c9.324-0.018 16.878-7.572 16.896-16.894v-77.394zM595.408 553.6v77.392c0.018 9.324 7.572 16.878 16.894 16.896h182.978c9.324-0.018 16.878-7.572 16.896-16.894v-77.394zM86.656 759.648c0.018 16.856 13.673 30.517 30.525 30.544h789.635c16.855-0.027 30.51-13.688 30.528-30.542v-206.962c-1.968 0.128-3.84 0.592-5.84 0.592h-87.328v77.712c-0.036 26.99-21.906 48.86-48.892 48.896h-182.98c-26.99-0.036-48.86-21.906-48.896-48.892v-77.716h-102.816v77.712c-0.036 26.99-21.906 48.86-48.892 48.896h-182.9c-26.99-0.036-48.86-21.906-48.896-48.892v-77.716h-87.408c-2 0-3.872-0.464-5.84-0.592zM134.656 89.248h-92.944v99.024h120.288zM982.24 89.248h-92.944l-27.296 99.072h120.288zM104.352 306.88h-0.704c-0.195 0.005-0.424 0.008-0.653 0.008-14.739 0-26.688-11.949-26.688-26.688s11.949-26.688 26.688-26.688c0.23 0 0.459 0.003 0.687 0.009l-0.034-0.001h0.704c0.195-0.005 0.424-0.008 0.653-0.008 14.739 0 26.688 11.949 26.688 26.688s-11.949 26.688-26.688 26.688c-0.23 0-0.459-0.003-0.687-0.009l0.034 0.001z" />
<glyph unicode="&#xe92c;" glyph-name="targeted" d="M1006.312 728.14l-99.736 199.576c-2.708 5.422-8.252 8.848-14.312 8.848s-11.602-3.426-14.312-8.848l-99.738-199.576c-2.478-4.96-2.212-10.848 0.704-15.566 2.916-4.716 8.064-7.586 13.61-7.586h29.336v-140.214c0-8.836 7.164-16 16-16h108.804c8.836 0 16 7.164 16 16v140.214h29.332c5.544 0 10.694 2.872 13.61 7.586s3.18 10.606 0.702 15.566zM946.666 736.986c-8.836 0-16-7.164-16-16v-140.214h-76.806v140.214c0 8.836-7.164 16-16 16h-19.454l73.856 147.784 73.854-147.784zM745.4 421.51h-108.244c-8.836 0-16-7.164-16-16v-430.070c0-8.836 7.164-16 16-16h108.244c8.836 0 16 7.164 16 16v430.070c0 8.836-7.164 16-16 16zM729.4-8.56h-76.244v398.070h76.244zM946.384 523.71h-108.242c-8.836 0-16-7.164-16-16v-532.27c0-8.836 7.164-16 16-16h108.242c8.836 0 16 7.164 16 16v532.27c0 8.836-7.164 16-16 16zM930.384-8.56h-76.242v500.27h76.242zM140.242 92.592h-108.242c-8.836 0-16-7.164-16-16v-101.152c0-8.836 7.164-16 16-16h108.24c8.836 0 16 7.164 16 16v101.152c0.002 8.836-7.162 16-15.998 16zM124.242-8.56h-76.242v69.152h76.24v-69.152zM749.59 703.418c4.14 4.142 5.69 10.216 4.034 15.836s-6.25 9.884-11.976 11.118l-75.712 16.316 35.824 35.824c6.248 6.248 6.248 16.378 0 22.626-6.252 6.25-16.38 6.248-22.628 0l-35.822-35.822-16.318 75.712c-1.234 5.726-5.5 10.32-11.12 11.976-5.612 1.654-11.692 0.108-15.836-4.034l-117.904-117.906c-3.842-3.842-5.47-9.372-4.326-14.684l20.668-95.9-14.48-14.48c-47.924 42.622-111 68.558-180.028 68.558-149.548 0-271.214-121.666-271.214-271.214 0-119.948 78.276-221.942 186.426-257.624v-174.278c0-8.836 7.164-16 16-16h108.242c8.836 0 16 7.164 16 16v166.398c21.262 4.436 41.616 11.37 60.746 20.48v-186.88c0-8.836 7.164-16 16-16h108.244c8.836 0 16 7.164 16 16v316.46c0 4.894-2.204 9.268-5.666 12.204 13.156 31.84 20.436 66.704 20.436 103.24 0 69.030-25.936 132.104-68.558 180.030l14.478 14.478 95.902-20.668c1.122-0.242 2.25-0.36 3.372-0.36 4.198 0 8.282 1.654 11.314 4.686zM510.92 718.602l90.974 90.976 14.482-67.19-90.974-90.976zM327.418-8.56h-76.242v149.864c17.082-3.384 34.73-5.174 52.79-5.174 7.902 0 15.72 0.36 23.454 1.026v-145.716zM528.41-8.562h-76.244v188.878c30.084 19.706 56.038 45.214 76.244 74.936zM543.178 407.344c0-131.904-107.31-239.214-239.212-239.214-131.904 0-239.214 107.31-239.214 239.214s107.31 239.214 239.214 239.214c60.206 0 115.28-22.366 157.372-59.212l-42.28-42.282c-31.188 26.106-71.334 41.848-115.092 41.848-99.014 0-179.568-80.554-179.568-179.568s80.554-179.568 179.568-179.568 179.566 80.554 179.566 179.568c0 43.758-15.74 83.904-41.848 115.092l42.28 42.282c36.85-42.094 59.214-97.168 59.214-157.374zM354.070 407.344c0-27.628-22.476-50.106-50.104-50.106s-50.106 22.478-50.106 50.106 22.476 50.106 50.106 50.106c7.988 0 15.54-1.888 22.248-5.228l-33.562-33.564c-6.248-6.248-6.248-16.378 0-22.626 3.124-3.124 7.218-4.686 11.314-4.686s8.19 1.562 11.314 4.686l33.562 33.562c3.338-6.71 5.228-14.262 5.228-22.25zM349.572 475.578c-13.054 8.754-28.742 13.87-45.606 13.87-45.274 0-82.106-36.832-82.106-82.106s36.832-82.106 82.106-82.106c45.272 0 82.104 36.832 82.104 82.106 0 16.864-5.116 32.552-13.87 45.606l46.744 46.744c20.364-25.302 32.588-57.418 32.588-92.35 0-81.37-66.198-147.568-147.566-147.568s-147.568 66.2-147.568 147.568 66.2 147.568 147.568 147.568c34.932 0 67.048-12.226 92.35-32.59zM615.222 614.302l-67.192 14.48 90.976 90.976 67.192-14.48z" />
<glyph unicode="&#xe92d;" glyph-name="clock" d="M512 960c-282.312 0-512-229.688-512-512s229.688-512 512-512 512 229.688 512 512-229.688 512-512 512zM512 0c-247.032 0-448 200.968-448 448s200.968 448 448 448 448-200.968 448-448-200.968-448-448-448zM544 767.999h-64v-333.249l201.375-201.375 45.25 45.25-182.625 182.625z" />
<glyph unicode="&#xe92e;" glyph-name="calendar" d="M782.034 457.092h71.428c16.148 0 29.286 13.138 29.286 29.286v71.428c0 16.148-13.138 29.286-29.286 29.286h-71.428c-16.148 0-29.286-13.138-29.286-29.286v-71.428c0-16.148 13.138-29.286 29.286-29.286zM782.748 557.092h70v-70h-70zM782.034 267.092h71.428c16.148 0 29.286 13.138 29.286 29.286v71.428c0 16.148-13.138 29.286-29.286 29.286h-71.428c-16.148 0-29.286-13.138-29.286-29.286v-71.428c0-16.148 13.138-29.286 29.286-29.286zM782.748 367.092h70v-70h-70zM578.202 457.092h71.428c16.148 0 29.286 13.138 29.286 29.286v71.428c0 16.148-13.138 29.286-29.286 29.286h-71.428c-16.148 0-29.286-13.138-29.286-29.286v-71.428c0-16.148 13.138-29.286 29.286-29.286zM578.916 557.092h70v-70h-70zM241.966 216h-71.428c-16.148 0-29.286-13.138-29.286-29.286v-71.428c0-16.148 13.138-29.286 29.286-29.286h71.428c16.148 0 29.286 13.138 29.286 29.286v71.428c0 16.148-13.138 29.286-29.286 29.286zM241.252 116h-70v70h70zM241.966 587.092h-71.428c-16.148 0-29.286-13.138-29.286-29.286v-71.428c0-16.148 13.138-29.286 29.286-29.286h71.428c16.148 0 29.286 13.138 29.286 29.286v71.428c0 16.15-13.138 29.286-29.286 29.286zM241.252 487.092h-70v70h70zM578.202 271.546h71.428c16.148 0 29.286 13.138 29.286 29.286v71.428c0 16.148-13.138 29.286-29.286 29.286h-71.428c-16.148 0-29.286-13.138-29.286-29.286v-71.428c0-16.148 13.138-29.286 29.286-29.286zM578.916 371.546h70v-70h-70zM897.646 891.452h-64.132v22.934c0 25.152-20.462 45.614-45.614 45.614h-6.888c-25.15 0-45.612-20.462-45.612-45.614v-22.934h-446.8v22.934c0 25.152-20.462 45.614-45.614 45.614h-6.888c-25.152 0-45.614-20.462-45.614-45.614v-22.934h-64.13c-41.41 0-75.1-33.69-75.1-75.1v-805.352c0-41.356 33.644-75 75-75h771.496c41.356 0 75 33.644 75 75v805.352c-0.002 41.41-33.692 75.1-75.104 75.1zM765.4 914.386c0 8.61 7.004 15.614 15.614 15.614h6.888c8.61 0 15.614-7.004 15.614-15.614v-22.934h-38.116zM220.486 914.386c0 8.61 7.004 15.614 15.614 15.614h6.888c8.61 0 15.614-7.004 15.614-15.614v-22.934h-38.114v22.934zM942.748 11c0-24.814-20.186-45-45-45h-771.496c-24.814 0-45 20.186-45 45v0.094c12.568-9.47 28.19-15.094 45.102-15.094h608.166c20.060 0 38.92 7.812 53.104 21.998l155.124 155.124zM772.318 45.118c1.176 4.854 1.816 9.916 1.816 15.126v100.128c0 18.88 15.362 34.242 34.244 34.242h100.126c5.21 0 10.272 0.64 15.126 1.816zM942.748 677.092h-639.148c-8.284 0-15-6.716-15-15s6.716-15 15-15h639.148v-388.236c0-18.882-15.362-34.244-34.244-34.244h-100.126c-35.424 0-64.244-28.82-64.244-64.242v-100.128c0-18.882-15.362-34.244-34.242-34.244h-583.538c-24.868 0-45.1 20.232-45.1 45.102v575.992h162.346c8.284 0 15 6.716 15 15s-6.716 15-15 15h-162.348v139.26c0 24.868 20.232 45.1 45.1 45.1h64.132v-44.104c0-25.152 20.462-45.614 45.614-45.614 8.284 0 15 6.716 15 15s-6.716 15-15 15c-8.61 0-15.614 7.004-15.614 15.614v44.104h514.916v-44.104c0-25.152 20.462-45.614 45.614-45.614 8.284 0 15 6.716 15 15s-6.716 15-15 15c-8.61 0-15.614 7.004-15.614 15.614v44.104h132.248c24.868 0 45.1-20.232 45.1-45.1zM241.966 401.546h-71.428c-16.148 0-29.286-13.138-29.286-29.286v-71.428c0-16.148 13.138-29.286 29.286-29.286h71.428c16.148 0 29.286 13.138 29.286 29.286v71.428c0 16.15-13.138 29.286-29.286 29.286zM241.252 301.546h-70v70h70zM374.37 457.092h71.428c16.148 0 29.286 13.138 29.286 29.286v71.428c0 16.148-13.138 29.286-29.286 29.286h-71.428c-16.148 0-29.286-13.138-29.286-29.286v-71.428c0-16.148 13.138-29.286 29.286-29.286zM375.084 557.092h70v-70h-70zM578.898 116c-0.372 7.954-6.938 14.286-14.984 14.286-8.284 0-15-6.716-15-15 0-16.148 13.138-29.286 29.286-29.286h71.428c16.148 0 29.286 13.138 29.286 29.286v71.428c0 16.148-13.138 29.286-29.286 29.286h-71.428c-16.148 0-29.286-13.138-29.286-29.286v-20.6c0-8.284 6.716-15 15-15s15 6.716 15 15v19.886h70v-70zM374.37 271.546h71.428c16.148 0 29.286 13.138 29.286 29.286v71.428c0 16.148-13.138 29.286-29.286 29.286h-71.428c-16.148 0-29.286-13.138-29.286-29.286v-71.428c0-16.148 13.138-29.286 29.286-29.286zM375.084 371.546h70v-70h-70zM374.37 86h71.428c16.148 0 29.286 13.138 29.286 29.286v71.428c0 16.148-13.138 29.286-29.286 29.286h-71.428c-16.148 0-29.286-13.138-29.286-29.286v-71.428c0-16.148 13.138-29.286 29.286-29.286zM375.084 186h70v-70h-70z" />
<glyph unicode="&#xe92f;" glyph-name="quote" d="M585.142 886.858v-438.858h292.571c0-161.321-131.251-292.571-292.571-292.571v-146.287c242.001 0 438.858 196.857 438.858 438.858v438.858zM0 448h292.571c0-161.321-131.251-292.571-292.571-292.571v-146.287c242.001 0 438.858 196.857 438.858 438.858v438.858h-438.858z" />
<glyph unicode="&#xe930;" glyph-name="quotation" d="M384 832h-288c-52.938 0-96-43.062-96-96v-288c0-52.938 43.062-96 96-96h129.172l-48.578-249.891c-1.828-9.391 0.641-19.094 6.719-26.469s15.125-11.641 24.688-11.641h103.672c27.828 0 52.563 18.203 60.984 44.563l93.156 220.969c0.531 1.266 0.984 2.563 1.344 3.875 8.531 30.656 12.844 62.36 12.844 94.219v308.375c0 52.938-43.062 96-96 96zM928 832h-288c-52.938 0-96-43.062-96-96v-288c0-52.938 43.062-96 96-96h129.188l-48.594-249.891c-1.844-9.391 0.625-19.094 6.719-26.469 6.062-7.375 15.125-11.641 24.687-11.641h103.687c27.844 0 52.563 18.203 60.969 44.578l93.156 220.953c0.531 1.266 0.969 2.563 1.344 3.875 8.532 30.687 12.844 62.39 12.844 94.219v308.375c0 52.938-43.062 96-96 96z" />
<glyph unicode="&#xe931;" glyph-name="linkedin-big-logo" d="M136.484 959.28c-75.201 0-136.429-61.216-136.484-136.476 0-75.26 61.228-136.488 136.484-136.488 75.229 0 136.425 61.228 136.425 136.488 0 75.253-61.2 136.476-136.425 136.476zM238.917 631.479h-204.882c-9.746 0-17.651-7.901-17.651-17.655v-659.453c0-9.75 7.905-17.651 17.651-17.651h204.878c9.75 0 17.655 7.905 17.655 17.651v659.453c0.004 9.758-7.901 17.655-17.651 17.655zM762.689 639.242c-74.977 0-140.866-22.831-181.072-60.060v34.641c0 9.754-7.905 17.655-17.655 17.655h-196.532c-9.75 0-17.655-7.901-17.655-17.655v-659.453c0-9.75 7.905-17.651 17.655-17.651h204.685c9.75 0 17.655 7.905 17.655 17.651v326.264c0 93.611 17.218 151.634 103.149 151.634 84.66-0.102 90.996-62.321 90.996-157.227v-320.671c0-9.75 7.905-17.651 17.659-17.651h204.78c9.746 0 17.651 7.905 17.651 17.651v361.739c-0.004 150.446-29.705 323.133-261.315 323.133z" />
<glyph unicode="&#xe932;" glyph-name="phone" d="M602 688c0-16.569-13.431-30-30-30s-30 13.431-30 30c0 16.569 13.431 30 30 30s30-13.431 30-30zM722 688c0-16.569-13.431-30-30-30s-30 13.431-30 30c0 16.569 13.431 30 30 30s30-13.431 30-30zM842 688c0-16.569-13.431-30-30-30s-30 13.431-30 30c0 16.569 13.431 30 30 30s30-13.431 30-30zM674.426-2c49.39 0 89.574 40.374 89.574 90v120c0 12.906-8.254 24.364-20.492 28.454l-179.574 60c-8.792 2.936-18.438 1.646-26.148-3.492l-76.366-50.91c-81.956 38.888-178.822 134.896-217.35 215.396l50.892 76.338c5.138 7.708 6.428 17.36 3.492 26.148l-60 179.574c-4.090 12.24-15.548 20.492-28.454 20.492h-120c-49.626 0-90-40.182-90-89.574 0-165.754 75.368-335.872 206.78-466.734 131.268-130.72 301.72-205.692 467.646-205.692zM90 700h98.394l48.5-145.152-51.854-77.78c-5.48-8.22-6.562-18.61-2.892-27.782 19.95-49.874 59.874-105.968 112.416-157.95 52.196-51.638 108.564-91.126 158.722-111.188 9.17-3.668 19.564-2.586 27.782 2.892l77.782 51.854 145.15-48.5v-98.394c0-16.822-12.99-30-29.574-30-315.826 0-614.426 297.628-614.426 612.426 0 16.584 13.178 29.574 30 29.574zM560.52 360.284c11.208-4.644 24.114-2.076 32.694 6.502l111.212 111.214h107.574c116.896 0 212 94.206 212 210s-95.104 210-212 210h-240c-115.794 0-210-94.206-210-210 0-105.61 78.366-193.262 180-207.864v-92.136c0-12.134 7.31-23.072 18.52-27.716zM422 688c0 82.71 67.29 150 150 150h240c83.812 0 152-67.29 152-150s-68.188-150-152-150h-120c-7.958 0-15.588-3.16-21.212-8.786l-68.788-68.788v47.574c0 16.568-13.432 30-30 30-82.71 0-150 67.29-150 150z" />
<glyph unicode="&#xe933;" glyph-name="call" d="M941.835 287.861c-62.693 0-124.251 9.805-182.584 29.083-28.584 9.749-63.723 0.805-81.168-17.112l-115.139-86.917c-133.528 71.277-215.779 153.501-286.083 286.027l84.36 112.139c21.917 21.888 29.779 53.861 20.36 83.861-19.36 58.64-29.195 120.168-29.195 182.888 0.003 45.309-36.859 82.171-82.165 82.171h-188.053c-45.307 0-82.168-36.861-82.168-82.168 0-519.333 422.501-941.832 941.835-941.832 45.307 0 82.168 36.861 82.168 82.168v187.528c-0.003 45.304-36.864 82.165-82.168 82.165z" />
<glyph unicode="&#xe934;" glyph-name="top-arrow" d="M512 640c8.184 0 16.376-3.128 22.624-9.376l320-320c12.504-12.504 12.504-32.752 0-45.248s-32.752-12.504-45.248 0l-297.376 297.376-297.376-297.376c-12.504-12.504-32.752-12.504-45.248 0s-12.504 32.752 0 45.248l320 320c6.248 6.248 14.44 9.376 22.624 9.376z" />
<glyph unicode="&#xe935;" glyph-name="down-arrow" d="M512 256c-8.184 0-16.376 3.128-22.624 9.376l-320 320c-12.504 12.504-12.504 32.752 0 45.248s32.752 12.504 45.248 0l297.376-297.376 297.376 297.376c12.504 12.504 32.752 12.504 45.248 0s12.504-32.752 0-45.248l-320-320c-6.248-6.248-14.44-9.376-22.624-9.376z" />
<glyph unicode="&#xe936;" glyph-name="pinterest" d="M441.14 282.72c-26.88-140.96-59.72-276.12-157-346.72-30.020 213.080 44.1 373.1 78.5 542.98-58.68 98.8 7.060 297.6 130.84 248.6 152.3-60.24-131.88-367.26 58.9-405.6 199.2-40.020 280.5 345.62 157 471.020-178.48 181.1-519.52 4.14-477.58-255.14 10.2-63.38 75.7-82.62 26.18-170.080-114.24 25.32-148.32 115.4-143.94 235.5 7.060 196.6 176.64 334.24 346.74 353.28 215.1 24.080 416.98-78.96 444.86-281.32 31.4-228.38-97.1-475.72-327.1-457.94-62.36 4.84-88.52 35.74-137.4 65.42z" />
<glyph unicode="&#xe937;" glyph-name="user" d="M504.702 466.735c67.765 0 126.437 24.305 174.39 72.258 47.937 47.945 72.25 106.609 72.25 174.382 0 67.75-24.305 126.422-72.258 174.382-47.953 47.937-106.625 72.242-174.382 72.242-67.773 0-126.437-24.305-174.382-72.25s-72.258-106.617-72.258-174.375c0-67.773 24.312-126.445 72.258-174.39 47.961-47.937 106.633-72.25 174.382-72.25zM372.757 845.321c36.789 36.789 79.945 54.672 131.945 54.672 51.992 0 95.156-17.883 131.953-54.672 36.789-36.797 54.68-79.961 54.68-131.945 0-52-17.891-95.156-54.68-131.953-36.797-36.797-79.961-54.68-131.953-54.68-51.984 0-95.14 17.891-131.945 54.68-36.797 36.789-54.687 79.953-54.687 131.953 0 51.984 17.891 95.148 54.687 131.945zM936.256 172.595c-1.383 19.953-4.18 41.719-8.297 64.703-4.156 23.156-9.508 45.047-15.914 65.055-6.625 20.68-15.617 41.101-26.75 60.672-11.539 20.312-25.102 38-40.32 52.555-15.914 15.227-35.398 27.469-57.93 36.398-22.453 8.883-47.336 13.383-73.953 13.383-10.453 0-20.562-4.289-40.086-17-12.016-7.836-26.070-16.898-41.758-26.922-13.414-8.547-31.586-16.555-54.031-23.805-21.898-7.086-44.133-10.68-66.086-10.68-21.937 0-44.172 3.594-66.086 10.68-22.422 7.242-40.601 15.25-53.992 23.797-15.539 9.93-29.602 18.992-41.797 26.937-19.508 12.711-29.617 17-40.070 17-26.625 0-51.5-4.508-73.945-13.398-22.516-8.914-42.008-21.156-57.937-36.398-15.219-14.562-28.781-32.242-40.312-52.547-11.117-19.57-20.117-39.984-26.742-60.68-6.398-20.008-11.75-41.891-15.906-65.047-4.125-22.953-6.914-44.726-8.297-64.726-1.359-19.555-2.047-39.906-2.047-60.469 0-53.453 16.992-96.726 50.5-128.64 33.094-31.492 76.875-47.461 130.133-47.461h493.062c53.242 0 97.023 15.969 130.125 47.461 33.516 31.891 50.508 75.18 50.508 128.648-0.008 20.633-0.703 40.984-2.070 60.484zM846.444 26.939c-21.867-20.812-50.898-30.93-88.758-30.93h-493.054c-37.867 0-66.898 10.117-88.758 30.922-21.445 20.414-31.867 48.281-31.867 85.172 0 19.187 0.633 38.133 1.898 56.32 1.234 17.844 3.758 37.445 7.5 58.273 3.695 20.57 8.398 39.875 13.992 57.351 5.367 16.758 12.687 33.351 21.766 49.336 8.664 15.234 18.633 28.305 29.633 38.836 10.289 9.852 23.258 17.914 38.539 23.961 14.133 5.594 30.016 8.656 47.258 9.117 2.102-1.117 5.844-3.25 11.906-7.203 12.336-8.039 26.555-17.211 42.273-27.25 17.719-11.297 40.547-21.5 67.82-30.305 27.883-9.016 56.32-13.594 84.547-13.594s56.672 4.578 84.539 13.586c27.297 8.82 50.117 19.016 67.859 30.328 16.086 10.281 29.906 19.187 42.242 27.234 6.062 3.945 9.805 6.086 11.906 7.203 17.25-0.461 33.133-3.523 47.273-9.117 15.273-6.047 28.242-14.117 38.531-23.961 11-10.523 20.969-23.594 29.633-38.844 9.086-15.977 16.414-32.578 21.773-49.32 5.602-17.5 10.312-36.797 14-57.351 3.734-20.867 6.266-40.476 7.5-58.289v-0.016c1.273-18.117 1.914-37.055 1.922-56.297-0.008-36.898-10.43-64.758-31.875-85.164z" />
<glyph unicode="&#xe938;" glyph-name="right-quotation-mark" d="M354.468 881.226h-236.312c-32.825 0-60.72-11.488-83.699-34.459-22.968-22.975-34.457-50.87-34.457-83.697v-236.303c0-32.825 11.482-60.716 34.457-83.686 22.977-22.968 50.881-34.461 83.699-34.461h137.846c16.405 0 30.357-5.746 41.845-17.23 11.488-11.478 17.23-25.434 17.23-41.852v-19.681c0-43.49-15.388-80.606-46.154-111.381-30.769-30.76-67.894-46.145-111.388-46.145h-39.38c-10.674 0-19.901-3.908-27.699-11.697-7.792-7.79-11.691-17.024-11.691-27.691v-78.779c0-10.65 3.899-19.901 11.691-27.693 7.805-7.788 17.024-11.697 27.699-11.697h39.382c42.671 0 83.389 8.32 122.161 24.93 38.77 16.612 72.306 39.080 100.615 67.389 28.303 28.311 50.767 61.841 67.381 100.613 16.612 38.77 24.921 79.485 24.921 122.15v433.225c0 32.827-11.488 60.72-34.459 83.691s-50.872 34.457-83.689 34.457zM989.531 846.767c-22.968 22.97-50.866 34.459-83.691 34.459h-236.303c-32.825 0-60.72-11.488-83.691-34.459-22.968-22.977-34.452-50.87-34.452-83.697v-236.303c0-32.825 11.484-60.716 34.452-83.686 22.97-22.968 50.868-34.461 83.691-34.461h137.846c16.405 0 30.368-5.746 41.854-17.23 11.475-11.484 17.23-25.434 17.23-41.852v-19.681c0-43.49-15.388-80.606-46.161-111.381-30.766-30.76-67.883-46.145-111.381-46.145h-39.388c-10.665 0-19.901-3.908-27.691-11.697-7.796-7.79-11.7-17.024-11.7-27.691v-78.779c0-10.65 3.903-19.901 11.7-27.693 7.788-7.788 17.024-11.697 27.691-11.697h39.388c42.664 0 83.38 8.32 122.156 24.93 38.763 16.612 72.295 39.080 100.606 67.389 28.309 28.311 50.786 61.85 67.389 100.613 16.61 38.761 24.923 79.485 24.923 122.15v433.225c-0.006 32.827-11.484 60.72-34.47 83.689z" />
<glyph unicode="&#xe939;" glyph-name="turn-left" d="M928 704v-213.333c-0.121-88.317-71.683-159.879-159.988-160h-562.743l116.011-116.053c6.274-5.858 10.185-14.178 10.185-23.412 0-17.673-14.327-32-32-32-9.234 0-17.554 3.911-23.394 10.166l-0.017 0.019-170.667 170.667c-5.772 5.794-9.341 13.787-9.341 22.613s3.569 16.819 9.342 22.614l170.666 170.666c5.699 5.321 13.376 8.588 21.815 8.588 17.673 0 32-14.327 32-32 0-8.44-3.267-16.116-8.606-21.834l0.017 0.019-116.011-116.053h562.731c52.99 0.073 95.927 43.010 96 95.993v213.34c0 17.673 14.327 32 32 32s32-14.327 32-32v0z" />
<glyph unicode="&#xe93a;" glyph-name="turn-left1" d="M96 192v213.333c0.121 88.317 71.683 159.879 159.988 160h562.743l-116.011 116.053c-6.274 5.858-10.185 14.178-10.185 23.412 0 17.673 14.327 32 32 32 9.234 0 17.554-3.911 23.394-10.166l0.017-0.019 170.667-170.667c5.772-5.794 9.341-13.787 9.341-22.613s-3.569-16.819-9.342-22.614l-170.666-170.666c-5.699-5.321-13.376-8.588-21.815-8.588-17.673 0-32 14.327-32 32 0 8.44 3.267 16.116 8.606 21.834l-0.017-0.019 116.011 116.053h-562.731c-52.99-0.073-95.927-43.010-96-95.993v-213.34c0-17.673-14.327-32-32-32s-32 14.327-32 32v0z" />
<glyph unicode="&#xe93b;" glyph-name="blueprint-1" d="M964.906 214.011c-8.284 0-15-6.714-15-15v-207.964c0-6.684-2.604-12.964-7.332-17.688-4.726-4.722-10.95-7.378-17.694-7.312-173.636 0.188-743.165 0.738-781.654-0.034-18.002-0.304-35.098 6.492-48.152 19.288-13.23 12.968-20.626 30.224-20.948 48.708 0.654 36.792 30.766 66.528 67.714 66.528 17.77 0 34.56-6.846 47.276-19.278 5.53-5.404 12.748-8.38 20.326-8.38h1.304c15.902 0 28.838 12.938 28.838 28.838v107.294c0 8.286-6.716 15-15 15s-15-6.714-15-15v-105.81c-18.294 17.634-42.324 27.336-67.744 27.336-26.274 0-50.162-10.422-67.744-27.348v759.067c0 18.308 7.19 35.462 20.246 48.302 13.052 12.838 30.366 19.712 48.662 19.432 36.712-0.614 66.58-31.61 66.58-69.096v-585.903c0-8.286 6.716-15 15-15s15 6.714 15 15v46.486h243.418v-217.476c0-8.286 6.716-15 15-15h342.065c8.284 0 15 6.714 15 15v528.053c0 8.286-6.716 15-15 15h-600.483v59.898l151.428-0.022c8.284 0 15 6.714 15 14.998s-6.714 15-14.998 15.002l-151.43 0.022v123.942c0 53.754-43.1 98.208-96.080 99.092-26.42 0.448-51.366-9.516-70.2-28.038-18.836-18.526-29.21-43.276-29.21-69.694v-829.462c0-0.586 0.042-1.16 0.108-1.728 1.080-25.206 11.822-49.494 29.872-67.188 18.386-18.022 42.388-27.876 67.79-27.876 0.652 0 1.31 0.008 1.962 0.022 38.198 0.76 607.461 0.212 781.022 0.026h0.060c14.678 0 28.482 5.712 38.868 16.088 10.402 10.39 16.13 24.208 16.13 38.912v207.964c0 8.284-6.716 15-15 15zM239.584 415.839c32.646-6.108 58.266-31.748 64.366-64.362h-64.366zM577.357 321.477c-6.16-32.4-31.946-58.202-64.356-64.36v64.36zM513.001 119.002v107.732c48.908 6.706 88.042 45.854 94.748 94.744h217.318v-202.476zM825.066 535.723h-53.12v27.944h53.12zM771.946 505.723h53.12v-27.946h-53.12zM825.066 593.667h-53.12v23.388h53.12zM513.001 617.055h76.666v-103.568h-76.666zM483.001 617.055v-183.448h-17c-8.284 0-15-6.714-15-15s6.716-15 15-15h32c8.284 0 15 6.714 15 15v64.878h91.666c8.284 0 15 6.714 15 15v118.568h122.28v-183.448h-15.814c-8.284 0-15-6.714-15-15s6.716-15 15-15h30.814c8.284 0 15 6.714 15 15v29.17h53.12v-96.3h-323.065c-0.68 0-1.344-0.060-2-0.148-0.656 0.088-1.32 0.148-2 0.148h-163.682c-6.652 49.222-45.458 88.070-94.736 94.73v170.848h243.418zM924.93 736.85l-467.937 0.068s0 0-0.002 0c-8.284 0-15-6.714-15-14.998s6.714-15 14.998-15.002l467.935-0.068c13.776-0.002 24.982-11.216 24.982-25v-416.861c0-8.286 6.716-15 15-15s15 6.714 15 15v416.861c0 30.324-24.662 54.994-54.976 55zM126.84 41.336v-14.668c0-8.286 6.716-15 15-15s15 6.714 15 15v14.668c0 8.286-6.716 15-15 15s-15-6.716-15-15zM219.338 56.336c-8.284 0-15-6.714-15-15v-14.668c0-8.286 6.716-15 15-15s15 6.714 15 15v14.668c0 8.284-6.716 15-15 15zM281.837 41.336v-14.668c0-8.286 6.716-15 15-15s15 6.714 15 15v14.668c0 8.286-6.716 15-15 15s-15-6.716-15-15zM359.335 41.336v-14.668c0-8.286 6.716-15 15-15s15 6.714 15 15v14.668c0 8.286-6.716 15-15 15s-15-6.716-15-15zM436.835 41.336v-14.668c0-8.286 6.716-15 15-15s15 6.714 15 15v14.668c0 8.286-6.716 15-15 15s-15-6.716-15-15zM514.335 41.336v-14.668c0-8.286 6.716-15 15-15s15 6.714 15 15v14.668c0 8.286-6.716 15-15 15s-15-6.716-15-15zM591.833 41.336v-14.668c0-8.286 6.716-15 15-15s15 6.714 15 15v14.668c0 8.286-6.716 15-15 15s-15-6.716-15-15zM669.333 41.336v-14.668c0-8.286 6.716-15 15-15s15 6.714 15 15v14.668c0 8.286-6.716 15-15 15s-15-6.716-15-15zM746.831 41.336v-14.668c0-8.286 6.716-15 15-15s15 6.714 15 15v14.668c0 8.286-6.716 15-15 15s-15-6.716-15-15zM839.33 56.336c-8.284 0-15-6.714-15-15v-14.668c0-8.286 6.716-15 15-15s15 6.714 15 15v14.668c0 8.284-6.716 15-15 15z" />
<glyph unicode="&#xe93c;" glyph-name="architect" d="M512 499.262c17.102 0 33.066 9.212 41.664 24.044 4.154 7.166 1.712 16.344-5.456 20.498-7.166 4.156-16.344 1.714-20.5-5.454-3.248-5.606-9.268-9.088-15.708-9.088s-12.458 3.482-15.708 9.088c-4.154 7.17-13.33 9.612-20.5 5.454-7.166-4.154-9.61-13.332-5.456-20.498 8.598-14.832 24.562-24.044 41.664-24.044zM445.734 582.1c8.284 0 15 6.714 15 15v16.566c0 8.286-6.716 15-15 15s-15-6.714-15-15v-16.566c0-8.286 6.716-15 15-15zM578.266 582.1c8.284 0 15 6.714 15 15v16.566c0 8.286-6.716 15-15 15s-15-6.714-15-15v-16.566c0-8.286 6.716-15 15-15zM945 164.8h-20.4v150.67c-0.002 44.808-36.458 81.264-81.266 81.264h-82.836c-17.406 0-31.566-14.16-31.566-31.566v-34.7h-21.256c-8.284 0-15-6.714-15-15s6.716-15 15-15h186.924v-137.758c-19.168-5.93-33.134-23.818-33.134-44.91v-150.8c0-0.338 0.040-0.664 0.050-1h-551.446c-8.284 0-15-6.714-15-15s6.716-15 15-15h666.93c25.916 0 47 21.084 47 47v102.8c0 43.562-35.44 79-79 79zM758.932 365.168c0 0.864 0.704 1.566 1.566 1.566h82.836c23.050 0 42.592-15.294 49.022-36.266h-133.424zM994-17c0-9.372-7.626-17-17-17h-84.532c-0.552 0-1 0.45-1 1v35.268h51.264c8.284 0 15 6.714 15 15s-6.716 15-15 15h-51.264v36.266h51.264c8.284 0 15 6.714 15 15s-6.716 15-15 15h-51.264v19.266c0 9.374 7.626 17 17 17h36.532c27.018 0 49-21.98 49-49zM647.674 300.468c8.284 0 15 6.714 15 15s-6.716 15-15 15h-21.276v77.198c36.798 30.184 61.502 74.586 65.64 124.734h18.76c26.542 0 48.134 21.592 48.134 48.132v66.268c0 10.352-3.296 19.944-8.88 27.804 5.484 5.682 8.88 13.394 8.88 21.896v16.566c0 26.542-21.592 48.132-48.134 48.132h-1.566v67.834c0 53.948-43.888 97.836-97.834 97.836h-42.984v2.132c0 17.094-13.906 31-31 31h-50.834c-17.094 0-31-13.906-31-31v-2.13h-42.982c-53.946 0-97.836-43.888-97.836-97.836l0.002-67.834h-1.564c-26.54 0-48.132-21.592-48.132-48.132v-16.566c0-8.502 3.394-16.214 8.88-21.896-5.582-7.86-8.88-17.45-8.88-27.802v-66.268c0-26.542 21.592-48.134 48.132-48.134h18.764c4.14-50.144 28.84-94.544 65.634-124.726v-77.204h-102.53v34.7c0 17.406-14.16 31.566-31.566 31.566h-82.836c-44.81 0-81.264-36.454-81.266-81.264v-150.674h-20.4c-43.56 0-79-35.44-79-79v-102.8c0-25.916 21.084-47 47-47h203.068c8.284 0 15 6.714 15 15s-6.716 15-15 15h-87.586c0.010 0.336 0.050 0.662 0.050 1v150.8c0 21.090-13.964 38.98-33.132 44.91v137.758zM728.934 580.534c0-9.998-8.134-18.132-18.134-18.132h-18.134v102.534h18.174c9.98-0.022 18.092-8.146 18.092-18.132v-66.27zM611.4 896.87c37.404 0 67.834-30.432 67.834-67.836v-67.834h-36.266v18.132c0 8.286-6.716 15-15 15s-15-6.714-15-15v-18.132h-44.55v135.67zM485.582 929c0 0.55 0.448 1 1 1h50.834c0.552 0 1-0.45 1-1v-167.8h-52.834zM344.766 829.034c0 37.404 30.43 67.836 67.836 67.836h42.982v-135.67h-44.55v18.132c0 8.286-6.716 15-15 15s-15-6.714-15-15v-18.132h-36.264zM295.068 713.066c0 9.998 8.134 18.132 18.132 18.132h397.6c10 0 18.134-8.134 18.134-18.132v-16.566c0-0.864-0.704-1.566-1.566-1.566h-430.734c-0.864 0-1.566 0.704-1.566 1.566zM295.068 580.534v66.266c0 9.998 8.134 18.132 18.132 18.132h18.134l0.002-102.536h-18.136c-9.998 0.002-18.132 8.138-18.132 18.138zM361.336 547.392l-0.002 117.54h301.332v-117.54c0-83.076-67.588-150.664-150.666-150.664s-150.664 67.588-150.664 150.664zM427.598 387.698c25.208-13.376 53.934-20.97 84.404-20.97 30.468 0 59.192 7.592 84.398 20.966v-57.226h-168.8v57.23zM180.666 366.734h82.836c0.864 0 1.566-0.704 1.566-1.566v-34.7h-133.424c6.43 20.972 25.972 36.266 49.022 36.266zM132.534 98.534h-51.264c-8.284 0-15-6.714-15-15s6.716-15 15-15h51.264v-36.266h-51.264c-8.284 0-15-6.714-15-15s6.716-15 15-15h51.264v-35.268c0-0.55-0.448-1-1-1h-84.534c-9.374 0-17 7.628-17 17v102.8c0 27.020 21.982 49 49 49h36.534c9.374 0 17-7.626 17-17z" />
<glyph unicode="&#xe93d;" glyph-name="house-plan" d="M938.667 800h-853.333c-5.973 0-10.667-4.693-10.667-10.667v-682.667c0-5.973 4.693-10.667 10.667-10.667h853.333c5.973 0 10.667 4.693 10.667 10.667v682.667c0 5.973-4.693 10.667-10.667 10.667zM928 117.333h-832v661.333h832zM128 138.667h768c5.973 0 10.667 4.693 10.667 10.667v597.333c0 5.973-4.693 10.667-10.667 10.667h-768c-5.973 0-10.667-4.693-10.667-10.667v-597.333c0-5.973 4.693-10.667 10.667-10.667zM501.333 160h-64v21.333h64zM885.333 160h-128v128h128zM885.333 373.333h-42.667v85.333h42.667zM693.333 736h192v-192h-192zM138.667 736h192v-192h-192zM138.667 522.667h202.667c5.973 0 10.667 4.693 10.667 10.667v202.667h149.333v-256h-10.667c-5.973 0-10.667-4.693-10.667-10.667s4.693-10.667 10.667-10.667h42.667c5.973 0 10.667 4.693 10.667 10.667s-4.693 10.667-10.667 10.667h-10.667v256h149.333v-202.667c0-5.973 4.693-10.667 10.667-10.667h202.667v-42.667h-53.333c-5.973 0-10.667-4.693-10.667-10.667v-106.667c0-5.973 4.693-10.667 10.667-10.667h53.333v-42.667h-138.667c-5.973 0-10.667-4.693-10.667-10.667v-138.667h-85.333v192h10.667c5.973 0 10.667 4.693 10.667 10.667s-4.693 10.667-10.667 10.667h-42.667c-5.973 0-10.667-4.693-10.667-10.667s4.693-10.667 10.667-10.667h10.667v-192h-106.667v32c0 5.973-4.693 10.667-10.667 10.667h-85.333c-5.973 0-10.667-4.693-10.667-10.667v-32h-106.667v213.333h170.667v-10.667c0-5.973 4.693-10.667 10.667-10.667s10.667 4.693 10.667 10.667v42.667c0 5.973-4.693 10.667-10.667 10.667s-10.667-4.693-10.667-10.667v-10.667h-341.333zM138.667 373.333h149.333v-213.333h-149.333zM192 586.667h-10.667v117.333c0 5.973-4.693 10.667-10.667 10.667s-10.667-4.693-10.667-10.667v-128c0-5.973 4.693-10.667 10.667-10.667h21.333c5.973 0 10.667 4.693 10.667 10.667s-4.693 10.667-10.667 10.667zM242.133 583.467c-3.84 4.053-11.093 4.053-14.933 0-1.067-0.853-1.92-2.133-2.347-3.413-0.64-1.28-0.853-2.56-0.853-4.053 0-1.28 0.213-2.773 0.853-4.053 0.427-1.28 1.28-2.56 2.347-3.413 1.92-2.133 4.693-3.2 7.467-3.2s5.547 1.067 7.467 3.2c1.067 0.853 1.92 2.133 2.347 3.413 0.64 1.28 0.853 2.773 0.853 4.053 0 1.493-0.213 2.773-0.853 4.053-0.427 1.28-1.28 2.56-2.347 3.413zM746.667 586.667h-10.667v117.333c0 5.973-4.693 10.667-10.667 10.667s-10.667-4.693-10.667-10.667v-128c0-5.973 4.693-10.667 10.667-10.667h21.333c5.973 0 10.667 4.693 10.667 10.667s-4.693 10.667-10.667 10.667zM781.867 583.467c-2.133-1.92-3.2-4.693-3.2-7.467 0-1.28 0.213-2.773 0.853-4.053 0.427-1.28 1.28-2.56 2.347-3.413 1.92-2.133 4.693-3.2 7.467-3.2s5.547 1.067 7.467 3.2c1.067 0.853 1.92 2.133 2.347 3.413 0.64 1.28 0.853 2.773 0.853 4.053 0 2.773-1.067 5.547-3.2 7.467-3.84 4.053-11.093 4.053-14.933 0zM192 202.667h-10.667v138.667c0 5.973-4.693 10.667-10.667 10.667s-10.667-4.693-10.667-10.667v-149.333c0-5.973 4.693-10.667 10.667-10.667h21.333c5.973 0 10.667 4.693 10.667 10.667s-4.693 10.667-10.667 10.667zM242.133 199.467c-0.853 1.067-2.133 1.92-3.413 2.347-2.56 1.067-5.547 1.067-8.107 0-1.28-0.427-2.56-1.28-3.413-2.347-1.067-0.853-1.92-2.133-2.347-3.413-0.64-1.28-0.853-2.773-0.853-4.053s0.213-2.773 0.853-4.053c0.427-1.28 1.28-2.56 2.347-3.413 0.853-1.067 2.133-1.92 3.413-2.347 1.28-0.64 2.773-0.853 4.053-0.853s2.773 0.213 4.053 0.853c1.28 0.427 2.56 1.28 3.413 2.347 1.067 0.853 1.92 2.133 2.347 3.413 0.64 1.28 0.853 2.773 0.853 4.053s-0.213 2.773-0.853 4.053c-0.427 1.28-1.28 2.56-2.347 3.413zM789.333 181.333h21.333c5.973 0 10.667 4.693 10.667 10.667s-4.693 10.667-10.667 10.667h-10.667v53.333c0 5.973-4.693 10.667-10.667 10.667s-10.667-4.693-10.667-10.667v-64c0-5.973 4.693-10.667 10.667-10.667zM853.333 181.333c2.773 0 5.547 1.067 7.467 3.2 1.067 0.853 1.92 2.133 2.347 3.413s0.853 2.56 0.853 4.053c0 2.773-1.28 5.547-3.2 7.467-3.84 4.053-11.093 4.053-14.933 0-2.133-1.92-3.2-4.693-3.2-7.467s1.067-5.547 3.2-7.467c1.92-2.133 4.693-3.2 7.467-3.2z" />
<glyph unicode="&#xe93e;" glyph-name="pencil-and-ruler" d="M844.896 826.208c2.896 2.896 4.688 6.896 4.688 11.315 0 8.837-7.163 16-16 16s-16-7.163-16-16c0-4.419 1.792-8.42 4.688-11.315v0c2.895-2.894 6.895-4.685 11.312-4.685s8.417 1.79 11.312 4.685v0zM904.864 211.92c-0.846 1.945-1.99 3.606-3.392 5.008l-219.792 219.776 321.6 321.6c2.894 2.895 4.685 6.895 4.685 11.312s-1.79 8.417-4.685 11.312l-158.4 158.4c-2.895 2.894-6.895 4.685-11.312 4.685s-8.417-1.79-11.312-4.685l-321.6-321.6-307.536 307.552c-11.582 11.582-27.582 18.746-45.256 18.746s-33.674-7.164-45.256-18.746l-67.888-67.888c-11.582-11.582-18.746-27.582-18.746-45.256s7.164-33.674 18.746-45.256l307.552-307.536-321.6-321.6c-2.894-2.895-4.685-6.895-4.685-11.312s1.79-8.417 4.685-11.312l158.4-158.4c2.895-2.894 6.895-4.685 11.312-4.685s8.417 1.79 11.312 4.685l321.6 321.6 219.776-219.792c1.402-1.402 3.063-2.546 4.905-3.352l0.103-0.040 237.6-101.824c1.858-0.817 4.024-1.293 6.301-1.293 8.837 0 16 7.163 16 16 0 2.277-0.476 4.443-1.333 6.404l0.040-0.103zM867.536 205.616l-22.64-22.64-208.464 208.48 22.624 22.624zM822.272 160.352l-22.624-22.624-208.48 208.48 22.624 22.624zM478.032 595.104l-22.624-22.624-183.104 183.088 22.64 22.64zM432.784 549.856l-22.64-22.64-183.088 183.104 22.624 22.624zM57.344 789.52c-5.789 5.791-9.369 13.789-9.369 22.624s3.58 16.833 9.369 22.624l67.888 67.888c5.791 5.789 13.789 9.369 22.624 9.369s16.833-3.58 22.624-9.369l45.264-45.264-113.136-113.136zM125.232 721.6l113.168 113.168 33.936-33.936-113.168-113.136zM181.808 665.024l22.624 22.64 183.088-183.072-22.624-22.624zM477.344 390.768c-2.874 2.779-6.795 4.491-11.115 4.491-8.837 0-16-7.163-16-16 0-4.321 1.712-8.241 4.496-11.12l56.556-56.572-34.624-34.624-33.952 33.936c-2.874 2.779-6.795 4.491-11.115 4.491-8.837 0-16-7.163-16-16 0-4.321 1.712-8.241 4.496-11.12l33.948-33.948-34.64-34.624-56.56 56.576c-2.914 3.014-6.993 4.885-11.509 4.885-8.837 0-16-7.163-16-16 0-4.516 1.871-8.595 4.88-11.504l56.596-56.58-34.624-34.624-33.952 33.936c-2.874 2.779-6.795 4.491-11.115 4.491-8.837 0-16-7.163-16-16 0-4.321 1.712-8.241 4.496-11.12l33.948-33.948-34.64-34.624-56.592 56.56c-2.896 2.898-6.899 4.691-11.32 4.691-8.838 0-16.003-7.165-16.003-16.003 0-4.417 1.79-8.416 4.683-11.312v0l56.576-56.56-34.64-34.64-33.936 33.952c-2.896 2.892-6.895 4.681-11.312 4.681-8.841 0-16.009-7.167-16.009-16.009 0-4.425 1.795-8.43 4.697-11.328v0l33.936-33.936-34.592-34.608-135.792 135.744 778.992 778.992 135.744-135.792-34.624-34.592-33.92 33.936c-2.896 2.898-6.899 4.691-11.32 4.691-8.838 0-16.003-7.165-16.003-16.003 0-4.417 1.79-8.416 4.683-11.312v0l33.952-33.936-34.64-34.64-56.56 56.576c-2.896 2.894-6.895 4.683-11.312 4.683-8.838 0-16.003-7.165-16.003-16.003 0-4.421 1.793-8.424 4.691-11.32l56.56-56.56-34.64-34.64-33.952 33.92c-2.874 2.779-6.795 4.491-11.115 4.491-8.837 0-16-7.163-16-16 0-4.321 1.712-8.241 4.496-11.12l33.932-33.948-34.624-34.624-56.576 56.56c-2.914 3.014-6.993 4.885-11.509 4.885-8.837 0-16-7.163-16-16 0-4.516 1.871-8.595 4.88-11.504l56.58-56.564-34.624-34.64-33.952 33.952c-2.874 2.779-6.795 4.491-11.115 4.491-8.837 0-16-7.163-16-16 0-4.321 1.712-8.241 4.496-11.12l33.932-33.948-34.624-34.624-56.576 56.592c-2.874 2.779-6.795 4.491-11.115 4.491-8.837 0-16-7.163-16-16 0-4.321 1.712-8.241 4.496-11.12l56.572-56.572-34.64-34.624-33.936 33.936c-2.874 2.779-6.795 4.491-11.115 4.491-8.837 0-16-7.163-16-16 0-4.321 1.712-8.241 4.496-11.12l33.932-33.932-34.624-34.64zM754.384 92.464l-208.464 208.48 22.624 22.624 208.48-208.464zM782.4 75.2l102.4 102.4 47.52-110.88-38.976-38.976zM924.944 14.096l20.896 20.896 15.76-36.592z" />
<glyph unicode="&#xe93f;" glyph-name="measuring" d="M210.734 364.010l446.38 446.38c9.47 8.862 2.354 26.038-10.608 25.606h-446.38c-8.286 0-15-6.716-15-15v-137.94c0-8.284 6.714-15 15-15s15 6.716 15 15v122.94h395.166l-395.166-395.168v206.868c0 8.284-6.714 15-15 15s-15-6.716-15-15v-243.080c0-16.856 14.992-21.94 25.608-10.606zM956.47 934.386c9.47 8.862 2.354 26.038-10.608 25.606h-869.742c-8.286 0-15-6.716-15-15v-869.744c-0.418-12.954 16.698-20.086 25.608-10.606zM91.118 929.992h818.53l-135.088-135.088-33.332 33.324c-5.862 5.86-15.36 5.858-21.212-0.002-5.858-5.858-5.858-15.356 0.002-21.212l33.33-33.322-66.644-66.644-33.33 33.324c-5.864 5.86-15.358 5.858-21.212-0.002-5.858-5.858-5.858-15.356 0.002-21.212l33.328-33.322-66.644-66.644-33.332 33.324c-5.862 5.858-15.36 5.856-21.212-0.002-5.858-5.858-5.858-15.356 0.002-21.212l33.33-33.322-66.644-66.644-33.33 33.324c-5.862 5.86-15.356 5.856-21.212-0.002s-5.858-15.356 0.002-21.212l33.328-33.322-66.646-66.646-33.33 33.322c-5.862 5.86-15.356 5.856-21.212-0.002-5.858-5.858-5.858-15.356 0.002-21.212l33.328-33.322-66.646-66.646-33.332 33.324c-5.862 5.858-15.36 5.856-21.212-0.002-5.858-5.858-5.858-15.356 0.002-21.212l33.33-33.322-66.646-66.646-33.332 33.324c-5.864 5.86-15.362 5.856-21.212-0.002-5.858-5.858-5.858-15.356 0.002-21.212l33.33-33.322-135.088-135.088zM921 208.948l38.682 49.22c5.12 6.512 3.99 15.942-2.524 21.062l-100.74 79.18c-6.514 5.12-15.946 3.99-21.062-2.524-5.12-6.514-3.99-15.944 2.524-21.062l88.946-69.912-20.144-25.632-199.024 156.43c-5.44 4.276-13.096 4.276-18.54 0l-199.046-156.432-20.142 25.632 218.392 171.636c5.924 4.66 14.206 4.656 20.136-0.002l77.96-61.28c6.512-5.118 15.944-3.99 21.062 2.524 5.12 6.512 3.99 15.944-2.524 21.062l-77.966 61.284c-16.852 13.236-40.38 13.232-57.212-0.004l-230.18-180.9c-6.512-5.12-7.642-14.548-2.526-21.062l38.68-49.22c5.102-6.784 15.662-7.604 21.874-1.888v-89.764c0-8.284 6.714-15 15-15s15 6.716 15 15v113.34l170.762 134.202 169.38-133.13v-265.712h-92.844v169.64c0 8.284-6.714 15-15 15h-123.088c-8.286 0-15-6.716-15-15v-169.64h-94.21v85.92c0 8.284-6.714 15-15 15s-15-6.716-15-15v-85.916h-46.264c-8.286 0-15-6.716-15-15s6.714-15 15-15h492.608c8.286 0 15 6.716 15 15s-6.714 15-15 15h-46.204v242.128c6.7-5.914 14.35-9.606 23.234 0.82zM651.836 120.636h93.088v-154.636h-93.088z" />
<glyph unicode="&#xe940;" glyph-name="heart" d="M512-7.031c-14.578 0-28.633 5.281-39.586 14.875-41.367 36.172-81.25 70.164-116.438 100.148l-0.18 0.156c-103.164 87.914-192.25 163.836-254.234 238.625-69.289 83.609-101.563 162.883-101.563 249.484 0 84.141 28.852 161.766 81.234 218.586 53.008 57.492 125.742 89.156 204.828 89.156 59.109 0 113.242-18.688 160.891-55.539 24.047-18.602 45.844-41.367 65.047-67.922 19.211 26.555 41 49.32 65.055 67.922 47.648 36.852 101.781 55.539 160.891 55.539 79.078 0 151.82-31.664 204.828-89.156 52.383-56.82 81.227-134.445 81.227-218.586 0-86.602-32.266-165.875-101.555-249.477-61.984-74.797-151.063-150.711-254.211-238.617-35.25-30.031-75.195-64.078-116.656-100.336-10.945-9.578-25.008-14.859-39.578-14.859zM286.063 844.016c-62.133 0-119.211-24.797-160.734-69.828-42.141-45.711-65.352-108.898-65.352-177.93 0-72.836 27.070-137.977 87.766-211.211 58.664-70.789 145.922-145.148 246.953-231.25l0.188-0.156c35.32-30.102 75.359-64.227 117.031-100.664 41.922 36.508 82.023 70.688 117.414 100.836 101.023 86.102 188.273 160.445 246.938 231.234 60.688 73.234 87.758 138.375 87.758 211.211 0 69.031-23.211 132.219-65.352 177.93-41.516 45.031-98.602 69.828-160.727 69.828-45.516 0-87.305-14.469-124.203-43-32.883-25.438-55.789-57.594-69.219-80.094-6.906-11.57-19.063-18.477-32.523-18.477s-25.617 6.906-32.523 18.477c-13.422 22.5-36.328 54.656-69.219 80.094-36.898 28.531-78.688 43-124.195 43z" />
</font>
</defs>
</svg>
